<?xml version="1.0" encoding="UTF-8" standalone="no"?>
<svg
   xmlns:dc="http://purl.org/dc/elements/1.1/"
   xmlns:cc="http://creativecommons.org/ns#"
   xmlns:rdf="http://www.w3.org/1999/02/22-rdf-syntax-ns#"
   xmlns:svg="http://www.w3.org/2000/svg"
   xmlns="http://www.w3.org/2000/svg"
   xmlns:sodipodi="http://sodipodi.sourceforge.net/DTD/sodipodi-0.dtd"
   xmlns:inkscape="http://www.inkscape.org/namespaces/inkscape"
   inkscape:version="1.0 (4035a4fb49, 2020-05-01)"
   sodipodi:docname="bag.svg"
   xml:space="preserve"
   style="enable-background:new 0 0 221.517 221.517;"
   viewBox="0 0 221.517 221.517"
   y="0px"
   x="0px"
   id="Capa_1"
   version="1.1"><metadata
   id="metadata43"><rdf:RDF><cc:Work
       rdf:about=""><dc:format>image/svg+xml</dc:format><dc:type
         rdf:resource="http://purl.org/dc/dcmitype/StillImage" /><dc:title></dc:title></cc:Work></rdf:RDF></metadata><defs
   id="defs41" /><sodipodi:namedview
   inkscape:current-layer="Capa_1"
   inkscape:window-maximized="1"
   inkscape:window-y="-8"
   inkscape:window-x="-8"
   inkscape:cy="110.7585"
   inkscape:cx="110.7585"
   inkscape:zoom="2.4287075"
   showgrid="false"
   id="namedview39"
   inkscape:window-height="705"
   inkscape:window-width="1366"
   inkscape:pageshadow="2"
   inkscape:pageopacity="0"
   guidetolerance="10"
   gridtolerance="10"
   objecttolerance="10"
   borderopacity="1"
   bordercolor="#666666"
   pagecolor="#ffffff" />
<g
   style="fill:#7f6f65;fill-opacity:1"
   id="g6">
	<g
   style="fill:#7f6f65;fill-opacity:1"
   id="g4">
		<path
   id="path2"
   d="M202.059,64.774h-34.391v-7.859C167.667,25.526,142.142,0,110.758,0    C79.37,0,53.844,25.526,53.844,56.914v7.859H19.458c-5.657,0-10.236,4.585-10.236,10.236v136.27    c0,5.651,4.58,10.236,10.236,10.236h182.6c5.657,0,10.236-4.585,10.236-10.236V75.01    C212.295,69.359,207.715,64.774,202.059,64.774z M74.317,56.914c0-20.097,16.35-36.442,36.442-36.442s36.436,16.344,36.436,36.442    v7.859H74.317V56.914z M191.828,85.246v37.258H29.689V85.246H191.828z M29.689,201.044v-58.073h162.139v58.073H29.689z"
   style="fill:#7f6f65;fill-opacity:1" />
	</g>
</g>
<g
   id="g8">
</g>
<g
   id="g10">
</g>
<g
   id="g12">
</g>
<g
   id="g14">
</g>
<g
   id="g16">
</g>
<g
   id="g18">
</g>
<g
   id="g20">
</g>
<g
   id="g22">
</g>
<g
   id="g24">
</g>
<g
   id="g26">
</g>
<g
   id="g28">
</g>
<g
   id="g30">
</g>
<g
   id="g32">
</g>
<g
   id="g34">
</g>
<g
   id="g36">
</g>
</svg>
