<?xml version="1.0" encoding="UTF-8" standalone="no"?>
<svg
   xmlns:dc="http://purl.org/dc/elements/1.1/"
   xmlns:cc="http://creativecommons.org/ns#"
   xmlns:rdf="http://www.w3.org/1999/02/22-rdf-syntax-ns#"
   xmlns:svg="http://www.w3.org/2000/svg"
   xmlns="http://www.w3.org/2000/svg"
   xmlns:sodipodi="http://sodipodi.sourceforge.net/DTD/sodipodi-0.dtd"
   xmlns:inkscape="http://www.inkscape.org/namespaces/inkscape"
   enable-background="new 0 0 50 50"
   height="50px"
   id="Layer_1"
   version="1.1"
   viewBox="0 0 50 50"
   width="50px"
   xml:space="preserve"
   sodipodi:docname="help.svg"
   inkscape:version="1.0 (4035a4fb49, 2020-05-01)"><metadata
     id="metadata15"><rdf:RDF><cc:Work
         rdf:about=""><dc:format>image/svg+xml</dc:format><dc:type
           rdf:resource="http://purl.org/dc/dcmitype/StillImage" /><dc:title /></cc:Work></rdf:RDF></metadata><defs
     id="defs13" /><sodipodi:namedview
     inkscape:document-rotation="0"
     pagecolor="#ffffff"
     bordercolor="#666666"
     borderopacity="1"
     objecttolerance="10"
     gridtolerance="10"
     guidetolerance="10"
     inkscape:pageopacity="0"
     inkscape:pageshadow="2"
     inkscape:window-width="1366"
     inkscape:window-height="705"
     id="namedview11"
     showgrid="false"
     inkscape:zoom="9.37"
     inkscape:cx="25"
     inkscape:cy="25"
     inkscape:window-x="-8"
     inkscape:window-y="-8"
     inkscape:window-maximized="1"
     inkscape:current-layer="Layer_1" /><circle
     r="24"
     cx="25"
     cy="25"
     fill="none"
     stroke="#000000"
     stroke-linecap="round"
     stroke-miterlimit="10"
     stroke-width="2"
     id="circle2"
     style="stroke:#7f6f65;stroke-opacity:1" /><rect
     fill="none"
     height="50"
     width="50"
     id="rect4" /><g
     id="g8"
     style="stroke:none;stroke-opacity:1;fill:#7f6f65;fill-opacity:1"><path
       d="M23.533,30.407v-1.47c0-1.436,0.322-2.188,1.075-3.229l2.404-3.3c1.254-1.721,1.684-2.546,1.684-3.766   c0-2.044-1.434-3.335-3.479-3.335c-2.008,0-3.299,1.219-3.729,3.407c-0.036,0.215-0.179,0.323-0.395,0.287l-2.259-0.395   c-0.216-0.036-0.323-0.179-0.288-0.395c0.539-3.443,3.014-5.703,6.744-5.703c3.872,0,6.49,2.546,6.49,6.097   c0,1.722-0.608,2.977-1.828,4.663l-2.403,3.3c-0.717,0.968-0.933,1.47-0.933,2.689v1.147c0,0.215-0.143,0.358-0.358,0.358h-2.367   C23.676,30.766,23.533,30.622,23.533,30.407z M23.354,33.851c0-0.215,0.143-0.358,0.359-0.358h2.726   c0.215,0,0.358,0.144,0.358,0.358v3.084c0,0.216-0.144,0.358-0.358,0.358h-2.726c-0.217,0-0.359-0.143-0.359-0.358V33.851z"
       id="path6"
       style="stroke:#7f6f65;stroke-opacity:1;fill:#7f6f65;fill-opacity:1" /></g><circle
     ry="23.179295"
     rx="23.232658"
     style="stroke:#7f6f65;stroke-opacity:1"
     id="circle843"
     stroke-width="1.93383"
     stroke-miterlimit="10"
     stroke-linecap="round"
     stroke="#000000"
     fill="none"
     cy="25"
     cx="25.053362" /></svg>
