<?xml version="1.0" encoding="UTF-8" standalone="no"?>
<svg
   xmlns:dc="http://purl.org/dc/elements/1.1/"
   xmlns:cc="http://creativecommons.org/ns#"
   xmlns:rdf="http://www.w3.org/1999/02/22-rdf-syntax-ns#"
   xmlns:svg="http://www.w3.org/2000/svg"
   xmlns="http://www.w3.org/2000/svg"
   xmlns:sodipodi="http://sodipodi.sourceforge.net/DTD/sodipodi-0.dtd"
   xmlns:inkscape="http://www.inkscape.org/namespaces/inkscape"
   inkscape:version="1.0 (4035a4fb49, 2020-05-01)"
   sodipodi:docname="menu.svg"
   id="svg16"
   version="1.1"
   height="24"
   width="24">
  <metadata
     id="metadata22">
    <rdf:RDF>
      <cc:Work
         rdf:about="">
        <dc:format>image/svg+xml</dc:format>
        <dc:type
           rdf:resource="http://purl.org/dc/dcmitype/StillImage" />
      </cc:Work>
    </rdf:RDF>
  </metadata>
  <defs
     id="defs20" />
  <sodipodi:namedview
     inkscape:current-layer="svg16"
     inkscape:window-maximized="1"
     inkscape:window-y="-8"
     inkscape:window-x="-8"
     inkscape:cy="12"
     inkscape:cx="12"
     inkscape:zoom="22.416667"
     showgrid="false"
     id="namedview18"
     inkscape:window-height="705"
     inkscape:window-width="1366"
     inkscape:pageshadow="2"
     inkscape:pageopacity="0"
     guidetolerance="10"
     gridtolerance="10"
     objecttolerance="10"
     borderopacity="1"
     bordercolor="#666666"
     pagecolor="#ffffff" />
  <title
     id="title2" />
  <desc
     id="desc4" />
  <g
     id="g9">
    <title
       id="title6">background</title>
    <rect
       x="-1"
       y="-1"
       width="582"
       height="402"
       id="canvas_background"
       fill="none" />
  </g>
  <g
     style="fill:#7f6f65;fill-opacity:1"
     id="g14">
    <title
       id="title11">Layer 1</title>
    <path
       style="fill:#7f6f65;fill-opacity:1"
       d="m1.500824,6c-0.276581,0 -0.500824,0.21402 -0.500824,0.504669l0,0.990662c0,0.278717 0.217743,0.504669 0.500824,0.504669l20.998352,0c0.276581,0 0.500824,-0.21402 0.500824,-0.504669l0,-0.990662c0,-0.278717 -0.217743,-0.504669 -0.500824,-0.504669l-20.998352,0zm0,5c-0.276581,0 -0.500824,0.21402 -0.500824,0.504669l0,0.990662c0,0.278717 0.217743,0.504669 0.500824,0.504669l20.998352,0c0.276581,0 0.500824,-0.21402 0.500824,-0.504669l0,-0.990662c0,-0.278717 -0.217743,-0.504669 -0.500824,-0.504669l-20.998352,0zm0,5c-0.276581,0 -0.500824,0.21402 -0.500824,0.504669l0,0.990662c0,0.278717 0.217743,0.504669 0.500824,0.504669l20.998352,0c0.276581,0 0.500824,-0.21402 0.500824,-0.504669l0,-0.990662c0,-0.278717 -0.217743,-0.504669 -0.500824,-0.504669l-20.998352,0z"
       fill="#3c352f"
       id="editor-list-view-hambuger-menu-glyph" />
  </g>
</svg>
