<?xml version="1.0" encoding="UTF-8" standalone="no"?>
<svg
   xmlns:dc="http://purl.org/dc/elements/1.1/"
   xmlns:cc="http://creativecommons.org/ns#"
   xmlns:rdf="http://www.w3.org/1999/02/22-rdf-syntax-ns#"
   xmlns:svg="http://www.w3.org/2000/svg"
   xmlns="http://www.w3.org/2000/svg"
   xmlns:sodipodi="http://sodipodi.sourceforge.net/DTD/sodipodi-0.dtd"
   xmlns:inkscape="http://www.inkscape.org/namespaces/inkscape"
   inkscape:version="1.0 (4035a4fb49, 2020-05-01)"
   sodipodi:docname="phone.svg"
   xml:space="preserve"
   width="50px"
   viewBox="0 0 50 50"
   version="1.1"
   id="Layer_1"
   height="50px"
   enable-background="new 0 0 50 50"><metadata
     id="metadata11"><rdf:RDF><cc:Work
         rdf:about=""><dc:format>image/svg+xml</dc:format><dc:type
           rdf:resource="http://purl.org/dc/dcmitype/StillImage" /><dc:title></dc:title></cc:Work></rdf:RDF></metadata><defs
     id="defs9" /><sodipodi:namedview
     inkscape:current-layer="Layer_1"
     inkscape:window-maximized="1"
     inkscape:window-y="-8"
     inkscape:window-x="-8"
     inkscape:cy="25"
     inkscape:cx="7.1096654"
     inkscape:zoom="10.76"
     showgrid="false"
     id="namedview7"
     inkscape:window-height="705"
     inkscape:window-width="1366"
     inkscape:pageshadow="2"
     inkscape:pageopacity="0"
     guidetolerance="10"
     gridtolerance="10"
     objecttolerance="10"
     borderopacity="1"
     bordercolor="#666666"
     pagecolor="#ffffff" /><rect
     id="rect2"
     width="50"
     height="50"
     fill="none" /><path
     style="fill:none;fill-opacity:1;stroke:#7f6f65;stroke-opacity:1"
     id="path4"
     stroke-width="2"
     stroke-miterlimit="10"
     stroke="#000000"
     fill="none"
     d="M30.217,35.252c0,0,4.049-2.318,5.109-2.875  c1.057-0.559,2.152-0.7,2.817-0.294c1.007,0.616,9.463,6.241,10.175,6.739c0.712,0.499,1.055,1.924,0.076,3.32  c-0.975,1.396-5.473,6.916-7.379,6.857c-1.909-0.062-9.846-0.236-24.813-15.207C1.238,18.826,1.061,10.887,1,8.978  C0.939,7.07,6.459,2.571,7.855,1.595c1.398-0.975,2.825-0.608,3.321,0.078c0.564,0.781,6.124,9.21,6.736,10.176  c0.419,0.66,0.265,1.761-0.294,2.819c-0.556,1.06-2.874,5.109-2.874,5.109s1.634,2.787,7.16,8.312  C27.431,33.615,30.217,35.252,30.217,35.252z" /></svg>
