<?xml version="1.0" encoding="UTF-8" standalone="no"?>
<svg
   xmlns:dc="http://purl.org/dc/elements/1.1/"
   xmlns:cc="http://creativecommons.org/ns#"
   xmlns:rdf="http://www.w3.org/1999/02/22-rdf-syntax-ns#"
   xmlns:svg="http://www.w3.org/2000/svg"
   xmlns="http://www.w3.org/2000/svg"
   xmlns:sodipodi="http://sodipodi.sourceforge.net/DTD/sodipodi-0.dtd"
   xmlns:inkscape="http://www.inkscape.org/namespaces/inkscape"
   width="26"
   height="26"
   version="1.1"
   id="svg12"
   sodipodi:docname="search_hover.svg"
   inkscape:version="1.0 (4035a4fb49, 2020-05-01)">
  <metadata
     id="metadata18">
    <rdf:RDF>
      <cc:Work
         rdf:about="">
        <dc:format>image/svg+xml</dc:format>
        <dc:type
           rdf:resource="http://purl.org/dc/dcmitype/StillImage" />
        <dc:title></dc:title>
      </cc:Work>
    </rdf:RDF>
  </metadata>
  <defs
     id="defs16" />
  <sodipodi:namedview
     inkscape:document-rotation="0"
     pagecolor="#ffffff"
     bordercolor="#666666"
     borderopacity="1"
     objecttolerance="10"
     gridtolerance="10"
     guidetolerance="10"
     inkscape:pageopacity="0"
     inkscape:pageshadow="2"
     inkscape:window-width="1366"
     inkscape:window-height="705"
     id="namedview14"
     showgrid="false"
     inkscape:zoom="20.692308"
     inkscape:cx="13"
     inkscape:cy="13"
     inkscape:window-x="-8"
     inkscape:window-y="-8"
     inkscape:window-maximized="1"
     inkscape:current-layer="svg12" />
  <g
     id="g5">
    <title
       id="title2">background</title>
    <rect
       fill="none"
       id="canvas_background"
       height="402"
       width="582"
       y="-1"
       x="-1" />
  </g>
  <g
     id="g10"
     style="fill:#f1976f;fill-opacity:1">
    <title
       id="title7">Layer 1</title>
    <path
       id="svg_1"
       fill="#3c352f"
       d="m14.94629,1c-5.54297,0 -10.05274,4.50977 -10.05274,10.05322c0,2.50226 0.92481,4.78852 2.44281,6.54987l-6.11663,6.11664c-0.29297,0.292969 -0.29297,0.76757 0,1.060539c0.14648,0.14649 0.33789,0.21973 0.53027,0.21973s0.38379,-0.07324 0.53027,-0.21973l6.11658,-6.11657c1.76123,1.518 4.047421,2.442749 6.54944,2.442749c5.543941,0 10.05371,-4.509769 10.05371,-10.053229s-4.509769,-10.05322 -10.05371,-10.05322zm0,18.606449c-4.71582,0 -8.55274,-3.836919 -8.55274,-8.553229s3.83692,-8.55322 8.55274,-8.55322c4.7168,0 8.55371,3.83691 8.55371,8.55322s-3.83691,8.553229 -8.55371,8.553229z"
       style="fill:#f1976f;fill-opacity:1" />
  </g>
</svg>
