<?xml version="1.0" encoding="UTF-8" standalone="no"?>
<svg
   xmlns:dc="http://purl.org/dc/elements/1.1/"
   xmlns:cc="http://creativecommons.org/ns#"
   xmlns:rdf="http://www.w3.org/1999/02/22-rdf-syntax-ns#"
   xmlns:svg="http://www.w3.org/2000/svg"
   xmlns="http://www.w3.org/2000/svg"
   xmlns:sodipodi="http://sodipodi.sourceforge.net/DTD/sodipodi-0.dtd"
   xmlns:inkscape="http://www.inkscape.org/namespaces/inkscape"
   version="1.1"
   id="svg10"
   xml:space="preserve"
   width="1000"
   height="666.66669"
   viewBox="0 0 1000 666.66669"
   sodipodi:docname="vintage_frame_2.svg"
   inkscape:version="1.0 (4035a4fb49, 2020-05-01)"><metadata
     id="metadata16"><rdf:RDF><cc:Work
         rdf:about=""><dc:format>image/svg+xml</dc:format><dc:type
           rdf:resource="http://purl.org/dc/dcmitype/StillImage" /><dc:title></dc:title></cc:Work></rdf:RDF></metadata><defs
     id="defs14"><clipPath
       clipPathUnits="userSpaceOnUse"
       id="clipPath26"><path
         d="M 0,500 H 750 V 0 H 0 Z"
         id="path24" /></clipPath><clipPath
       clipPathUnits="userSpaceOnUse"
       id="clipPath34"><path
         d="M -242.434,654.71 H 876.024 V -323.241 H -242.434 Z"
         id="path32" /></clipPath><clipPath
       clipPathUnits="userSpaceOnUse"
       id="clipPath38"><path
         d="M 750,0 H 0 v 500 h 750 z"
         id="path36" /></clipPath><clipPath
       clipPathUnits="userSpaceOnUse"
       id="clipPath42"><path
         d="M 554.861,37.5212 H 717.603 V -97.015 H 554.861 Z"
         id="path40" /></clipPath><clipPath
       clipPathUnits="userSpaceOnUse"
       id="clipPath46"><path
         d="M 554.861,37.5212 H 717.603 V -97.015 H 554.861 Z"
         id="path44" /></clipPath><clipPath
       clipPathUnits="userSpaceOnUse"
       id="clipPath50"><path
         d="M 584.911,75.2918 H 686.525 V -84.0397 H 584.911 Z"
         id="path48" /></clipPath><clipPath
       clipPathUnits="userSpaceOnUse"
       id="clipPath54"><path
         d="M 584.911,75.2918 H 686.525 V -84.0397 H 584.911 Z"
         id="path52" /></clipPath><clipPath
       clipPathUnits="userSpaceOnUse"
       id="clipPath58"><path
         d="M 625.911,594.355 H 793.477 V 437.458 H 625.911 Z"
         id="path56" /></clipPath><clipPath
       clipPathUnits="userSpaceOnUse"
       id="clipPath62"><path
         d="M 625.911,594.355 H 793.477 V 437.458 H 625.911 Z"
         id="path60" /></clipPath><clipPath
       clipPathUnits="userSpaceOnUse"
       id="clipPath66"><path
         d="M -49.4458,576.72 H 118.12 V 419.824 H -49.4458 Z"
         id="path64" /></clipPath><clipPath
       clipPathUnits="userSpaceOnUse"
       id="clipPath70"><path
         d="M -49.4458,576.72 H 118.12 V 419.824 H -49.4458 Z"
         id="path68" /></clipPath><clipPath
       clipPathUnits="userSpaceOnUse"
       id="clipPath74"><path
         d="m 708.799,451.118 h 86.832 V 277.624 h -86.832 z"
         id="path72" /></clipPath><clipPath
       clipPathUnits="userSpaceOnUse"
       id="clipPath78"><path
         d="m 708.799,451.118 h 86.832 V 277.624 h -86.832 z"
         id="path76" /></clipPath><clipPath
       clipPathUnits="userSpaceOnUse"
       id="clipPath82"><path
         d="M 396.633,522.551 H 714.441 V 463.818 H 396.633 Z"
         id="path80" /></clipPath><clipPath
       clipPathUnits="userSpaceOnUse"
       id="clipPath86"><path
         d="M 396.633,522.551 H 714.441 V 463.818 H 396.633 Z"
         id="path84" /></clipPath><clipPath
       clipPathUnits="userSpaceOnUse"
       id="clipPath90"><path
         d="M 30.6333,528.551 H 348.441 V 469.818 H 30.6333 Z"
         id="path88" /></clipPath><clipPath
       clipPathUnits="userSpaceOnUse"
       id="clipPath94"><path
         d="M 30.6333,528.551 H 348.441 V 469.818 H 30.6333 Z"
         id="path92" /></clipPath><clipPath
       clipPathUnits="userSpaceOnUse"
       id="clipPath98"><path
         d="M 322.451,654.71 H 470.92 V 462.2 H 322.451 Z"
         id="path96" /></clipPath><clipPath
       clipPathUnits="userSpaceOnUse"
       id="clipPath102"><path
         d="M 322.451,654.71 H 470.92 V 462.2 H 322.451 Z"
         id="path100" /></clipPath><clipPath
       clipPathUnits="userSpaceOnUse"
       id="clipPath106"><path
         d="M -39.0844,87.5493 H 48.8049 V -4.91441 h -87.8893 z"
         id="path104" /></clipPath><clipPath
       clipPathUnits="userSpaceOnUse"
       id="clipPath110"><path
         d="M -39.0844,87.5493 H 48.8049 V -4.91441 h -87.8893 z"
         id="path108" /></clipPath><clipPath
       clipPathUnits="userSpaceOnUse"
       id="clipPath114"><path
         d="m 698.526,329.525 h 87.889 v -92.464 h -87.889 z"
         id="path112" /></clipPath><clipPath
       clipPathUnits="userSpaceOnUse"
       id="clipPath118"><path
         d="m 698.526,329.525 h 87.889 v -92.464 h -87.889 z"
         id="path116" /></clipPath><clipPath
       clipPathUnits="userSpaceOnUse"
       id="clipPath122"><path
         d="m -187.289,422.17 h 346.06 V 282.678 h -346.06 z"
         id="path120" /></clipPath><clipPath
       clipPathUnits="userSpaceOnUse"
       id="clipPath126"><path
         d="m -187.289,422.17 h 346.06 V 282.678 h -346.06 z"
         id="path124" /></clipPath><clipPath
       clipPathUnits="userSpaceOnUse"
       id="clipPath130"><path
         d="M -242.434,182.886 H 115.12 V 70.0401 h -357.554 z"
         id="path128" /></clipPath><clipPath
       clipPathUnits="userSpaceOnUse"
       id="clipPath134"><path
         d="M -242.434,182.886 H 115.12 V 70.0401 h -357.554 z"
         id="path132" /></clipPath><clipPath
       clipPathUnits="userSpaceOnUse"
       id="clipPath138"><path
         d="M 625.406,297.962 H 756.774 V 141.851 H 625.406 Z"
         id="path136" /></clipPath><clipPath
       clipPathUnits="userSpaceOnUse"
       id="clipPath142"><path
         d="M 625.406,297.962 H 756.774 V 141.851 H 625.406 Z"
         id="path140" /></clipPath><clipPath
       clipPathUnits="userSpaceOnUse"
       id="clipPath146"><path
         d="M 230.596,38.4901 H 429.644 V -30.7946 H 230.596 Z"
         id="path144" /></clipPath><clipPath
       clipPathUnits="userSpaceOnUse"
       id="clipPath150"><path
         d="M 230.596,38.4901 H 429.644 V -30.7946 H 230.596 Z"
         id="path148" /></clipPath><clipPath
       clipPathUnits="userSpaceOnUse"
       id="clipPath154"><path
         d="M 676.976,191.69 H 876.024 V 122.405 H 676.976 Z"
         id="path152" /></clipPath><clipPath
       clipPathUnits="userSpaceOnUse"
       id="clipPath158"><path
         d="M 676.976,191.69 H 876.024 V 122.405 H 676.976 Z"
         id="path156" /></clipPath><clipPath
       clipPathUnits="userSpaceOnUse"
       id="clipPath162"><path
         d="m 630.507,130.626 h 170.8 v -390.128 h -170.8 z"
         id="path160" /></clipPath><clipPath
       clipPathUnits="userSpaceOnUse"
       id="clipPath166"><path
         d="m 630.507,130.626 h 170.8 v -390.128 h -170.8 z"
         id="path164" /></clipPath><clipPath
       clipPathUnits="userSpaceOnUse"
       id="clipPath170"><path
         d="M 672.598,147.985 H 843.397 V -242.144 H 672.598 Z"
         id="path168" /></clipPath><clipPath
       clipPathUnits="userSpaceOnUse"
       id="clipPath174"><path
         d="M 672.598,147.985 H 843.397 V -242.144 H 672.598 Z"
         id="path172" /></clipPath><clipPath
       clipPathUnits="userSpaceOnUse"
       id="clipPath178"><path
         d="M 436.859,66.8876 H 607.658 V -323.241 H 436.859 Z"
         id="path176" /></clipPath><clipPath
       clipPathUnits="userSpaceOnUse"
       id="clipPath182"><path
         d="M 436.859,66.8876 H 607.658 V -323.241 H 436.859 Z"
         id="path180" /></clipPath><clipPath
       clipPathUnits="userSpaceOnUse"
       id="clipPath186"><path
         d="M 117.439,125.622 H 288.238 V -264.507 H 117.439 Z"
         id="path184" /></clipPath><clipPath
       clipPathUnits="userSpaceOnUse"
       id="clipPath190"><path
         d="M 117.439,125.622 H 288.238 V -264.507 H 117.439 Z"
         id="path188" /></clipPath><clipPath
       clipPathUnits="userSpaceOnUse"
       id="clipPath194"><path
         d="M -56.5753,288.89 H 76.7312 V 235.682 H -56.5753 Z"
         id="path192" /></clipPath><clipPath
       clipPathUnits="userSpaceOnUse"
       id="clipPath198"><path
         d="M -56.5753,288.89 H 76.7312 V 235.682 H -56.5753 Z"
         id="path196" /></clipPath><clipPath
       clipPathUnits="userSpaceOnUse"
       id="clipPath202"><path
         d="M 0,500 H 750 V 0 H 0 Z"
         id="path200" /></clipPath><clipPath
       clipPathUnits="userSpaceOnUse"
       id="clipPath206"><path
         d="M 750,0 H 0 v 500 h 750 z"
         id="path204" /></clipPath><radialGradient
       fx="0"
       fy="0"
       cx="0"
       cy="0"
       r="1"
       gradientUnits="userSpaceOnUse"
       gradientTransform="matrix(375,0,0,-250,375,250)"
       spreadMethod="pad"
       id="radialGradient212"><stop
         style="stop-opacity:1;stop-color:#f6f4e9"
         offset="0"
         id="stop208" /><stop
         style="stop-opacity:1;stop-color:#e6d8be"
         offset="1"
         id="stop210" /></radialGradient><clipPath
       clipPathUnits="userSpaceOnUse"
       id="clipPath1398"><path
         d="M 0,500 H 750 V 0 H 0 Z"
         id="path1396" /></clipPath></defs><sodipodi:namedview
     inkscape:document-rotation="0"
     pagecolor="#ffffff"
     bordercolor="#666666"
     borderopacity="1"
     objecttolerance="10"
     gridtolerance="10"
     guidetolerance="10"
     inkscape:pageopacity="0"
     inkscape:pageshadow="2"
     inkscape:window-width="1366"
     inkscape:window-height="705"
     id="namedview12"
     showgrid="false"
     inkscape:zoom="1.1412703"
     inkscape:cx="430.74393"
     inkscape:cy="386.54774"
     inkscape:window-x="-8"
     inkscape:window-y="-8"
     inkscape:window-maximized="1"
     inkscape:current-layer="g18" /><g
     id="g18"
     inkscape:groupmode="layer"
     inkscape:label="3152246"
     transform="matrix(1.3333333,0,0,-1.3333333,0,666.66667)"
     style="display:inline"><g
       id="g1400"
       transform="translate(277.64075,354.776)"><path
         d="m 0,0 c -0.755,0.783 -1.413,1.662 -1.984,2.595 -0.573,0.932 -1.061,1.926 -1.415,2.976 -0.714,2.083 -0.801,4.489 0.092,6.598 0.427,1.053 1.058,2.017 1.813,2.852 0.751,0.838 1.62,1.583 2.604,2.165 1.954,1.174 4.44,1.553 6.663,0.875 1.114,-0.326 2.14,-0.922 3.005,-1.696 0.846,-0.79 1.547,-1.765 1.926,-2.871 0.4,-1.098 0.497,-2.291 0.327,-3.429 C 12.958,9.492 12.799,8.938 12.616,8.412 12.425,7.84 12.122,7.335 11.767,6.873 11.047,5.958 10.023,5.263 8.9,4.992 8.344,4.834 7.77,4.797 7.206,4.791 6.922,4.794 6.632,4.838 6.348,4.864 L 5.926,4.977 C 5.785,5.011 5.646,5.05 5.516,5.124 4.419,5.579 3.699,6.668 3.548,7.771 3.457,8.323 3.462,8.89 3.592,9.429 3.725,9.959 3.958,10.5 4.4,10.832 3.994,10.46 3.823,9.919 3.742,9.4 3.657,8.875 3.689,8.333 3.812,7.824 4.032,6.794 4.745,5.905 5.702,5.585 5.815,5.53 5.938,5.502 6.063,5.479 L 6.432,5.399 C 6.689,5.392 6.94,5.364 7.198,5.374 c 0.518,0.033 1.036,0.092 1.519,0.257 0.977,0.291 1.826,0.909 2.418,1.72 0.29,0.408 0.537,0.858 0.671,1.323 0.158,0.504 0.292,1 0.343,1.508 0.128,1.011 0.018,2.042 -0.348,2.98 -0.343,0.946 -0.947,1.787 -1.689,2.468 C 9.354,16.295 8.456,16.811 7.481,17.089 5.541,17.697 3.364,17.383 1.587,16.354 0.689,15.85 -0.125,15.185 -0.838,14.423 -1.55,13.661 -2.155,12.803 -2.581,11.858 -3.452,9.97 -3.499,7.758 -2.925,5.713 -2.378,3.65 -1.319,1.719 0,0"
         style="fill:#3a3a3a;fill-opacity:1;fill-rule:nonzero;stroke:none"
         id="path1402" /></g><g
       id="g1404"
       transform="translate(288.43955,370.4298)"><path
         d="m 0,0 c 0.772,-1.122 1.807,-2.087 3.031,-2.63 0.609,-0.268 1.259,-0.444 1.918,-0.456 0.163,-0.012 0.328,0.015 0.491,0.02 l 0.246,0.014 c 0.081,0.013 0.161,0.032 0.241,0.048 l 0.482,0.099 0.469,0.158 c 0.614,0.228 1.205,0.529 1.671,0.965 0.468,0.429 0.825,0.973 0.982,1.574 0.084,0.298 0.12,0.607 0.11,0.91 C 9.624,0.997 9.559,1.306 9.432,1.503 9.401,1.551 9.37,1.598 9.344,1.607 9.335,1.63 9.266,1.656 9.215,1.683 9.104,1.721 8.991,1.744 8.872,1.737 8.635,1.72 8.384,1.609 8.17,1.428 7.726,1.078 7.443,0.505 7.326,-0.077 7.212,-0.666 7.277,-1.292 7.501,-1.874 c 0.227,-0.581 0.602,-1.115 1.063,-1.575 0.45,-0.468 0.989,-0.833 1.597,-1.026 1.215,-0.404 2.654,0.071 3.489,1.093 0.423,0.503 0.684,1.149 0.687,1.815 0.012,0.671 -0.302,1.321 -0.765,1.822 0.495,-0.465 0.87,-1.106 0.908,-1.817 0.052,-0.705 -0.196,-1.417 -0.62,-1.984 -0.83,-1.146 -2.392,-1.793 -3.833,-1.408 -0.713,0.182 -1.36,0.574 -1.886,1.062 -0.532,0.478 -0.995,1.06 -1.304,1.74 C 6.195,-0.813 6.401,1.03 7.678,2.053 7.995,2.299 8.399,2.483 8.848,2.496 9.072,2.5 9.299,2.451 9.505,2.364 9.684,2.297 9.959,2.077 10.046,1.884 10.453,1.099 10.359,0.322 10.155,-0.394 9.938,-1.112 9.488,-1.741 8.933,-2.216 8.378,-2.701 7.706,-3 7.032,-3.211 L 6.521,-3.354 5.993,-3.436 C 5.905,-3.448 5.817,-3.464 5.729,-3.474 L 5.461,-3.477 C 5.283,-3.474 5.105,-3.492 4.929,-3.471 4.217,-3.42 3.531,-3.199 2.909,-2.881 1.667,-2.224 0.696,-1.172 0,0"
         style="fill:#3a3a3a;fill-opacity:1;fill-rule:nonzero;stroke:none"
         id="path1406" /></g><g
       id="g1408"
       transform="translate(281.26865,363.9694)"><path
         d="M 0,0 C 0,0 0.095,2.654 2.803,2.315 5.511,1.977 3.48,-1.07 2.126,0.623 0.772,2.315 0,0 0,0"
         style="fill:#3a3a3a;fill-opacity:1;fill-rule:nonzero;stroke:none"
         id="path1410" /></g><g
       id="g1412"
       transform="translate(302.85795,368.8229)"><path
         d="M 0,0 C 0,0 0.302,1.508 -1.251,2.236 -2.806,2.963 -2.756,0.65 -1.464,1.102 -0.172,1.554 0,0 0,0"
         style="fill:#3a3a3a;fill-opacity:1;fill-rule:nonzero;stroke:none"
         id="path1414" /></g><g
       id="g1416"
       transform="translate(274.05575,358.2897)"><path
         d="m 0,0 c -1.608,1.233 -3.007,2.753 -4.059,4.522 -1.029,1.769 -1.618,3.891 -1.348,6.007 0.124,1.046 0.47,2.131 1.214,3.013 0.736,0.875 1.975,1.412 3.166,1.184 C -0.441,14.61 0.137,14.331 0.545,13.847 0.95,13.365 1.126,12.678 0.988,12.101 0.965,11.955 0.917,11.813 0.867,11.674 0.809,11.504 0.732,11.406 0.653,11.284 0.491,11.057 0.302,10.844 0.066,10.677 c -0.235,-0.164 -0.524,-0.275 -0.814,-0.272 -0.29,-0.002 -0.55,0.111 -0.767,0.252 l 0.045,0.091 c 1.003,-0.402 1.72,0.68 1.75,1.444 0.061,0.848 -0.642,1.451 -1.466,1.531 -0.816,0.091 -1.672,-0.227 -2.266,-0.86 C -4.067,12.241 -4.444,11.345 -4.604,10.406 -4.944,8.514 -4.517,6.515 -3.612,4.764 -2.72,3 -1.444,1.404 0.062,0.081 Z"
         style="fill:#3a3a3a;fill-opacity:1;fill-rule:nonzero;stroke:none"
         id="path1418" /></g><g
       id="g1420"
       transform="translate(268.80285,363.2033)"><path
         d="m 0,0 c -0.675,0.627 -1.264,1.338 -1.809,2.09 -0.527,0.763 -0.993,1.582 -1.332,2.474 -0.335,0.881 -0.622,1.874 -0.432,2.877 0.178,0.992 0.734,1.916 1.54,2.442 L -1.955,9.818 C -2.124,9.373 -2.28,8.965 -2.386,8.551 -2.482,8.136 -2.547,7.729 -2.564,7.32 -2.583,6.511 -2.596,5.66 -2.368,4.812 -2.151,3.969 -1.801,3.144 -1.376,2.356 -0.964,1.559 -0.471,0.795 0.074,0.07 Z"
         style="fill:#3a3a3a;fill-opacity:1;fill-rule:nonzero;stroke:none"
         id="path1422" /></g><g
       id="g1424"
       transform="translate(277.30185,354.4372)"><path
         d="m 0,0 c -1.719,1.319 -3.65,2.378 -5.713,2.925 -2.045,0.574 -4.257,0.527 -6.145,-0.344 -0.945,-0.426 -1.803,-1.031 -2.565,-1.743 -0.762,-0.713 -1.428,-1.527 -1.931,-2.425 -1.029,-1.777 -1.343,-3.954 -0.735,-5.894 0.278,-0.975 0.793,-1.873 1.459,-2.631 0.681,-0.742 1.522,-1.346 2.468,-1.689 0.938,-0.366 1.969,-0.476 2.98,-0.348 0.508,0.051 1.004,0.185 1.508,0.343 0.465,0.134 0.915,0.381 1.323,0.671 0.811,0.592 1.429,1.441 1.72,2.418 0.165,0.483 0.224,1.001 0.257,1.519 0.01,0.258 -0.018,0.509 -0.025,0.766 l -0.08,0.369 c -0.023,0.125 -0.051,0.248 -0.106,0.361 -0.32,0.957 -1.209,1.67 -2.239,1.89 -0.509,0.123 -1.051,0.155 -1.576,0.07 -0.519,-0.081 -1.06,-0.252 -1.432,-0.658 0.332,0.442 0.873,0.675 1.403,0.808 0.539,0.13 1.106,0.135 1.658,0.044 1.103,-0.151 2.192,-0.871 2.647,-1.968 0.074,-0.13 0.113,-0.269 0.147,-0.41 l 0.113,-0.422 c 0.026,-0.284 0.07,-0.574 0.073,-0.858 -0.006,-0.564 -0.043,-1.138 -0.201,-1.694 -0.271,-1.123 -0.966,-2.148 -1.881,-2.867 -0.462,-0.355 -0.967,-0.658 -1.539,-0.849 -0.526,-0.183 -1.08,-0.342 -1.653,-0.415 -1.138,-0.17 -2.331,-0.073 -3.429,0.327 -1.106,0.379 -2.081,1.079 -2.871,1.926 -0.774,0.865 -1.37,1.891 -1.696,3.005 -0.678,2.223 -0.299,4.709 0.875,6.663 0.582,0.984 1.327,1.853 2.165,2.604 0.835,0.755 1.799,1.386 2.852,1.813 2.109,0.893 4.515,0.806 6.598,0.092 1.05,-0.354 2.044,-0.842 2.976,-1.415 C -1.662,1.413 -0.783,0.755 0,0"
         style="fill:#3a3a3a;fill-opacity:1;fill-rule:nonzero;stroke:none"
         id="path1426" /></g><g
       id="g1428"
       transform="translate(261.64805,343.6383)"><path
         d="m 0,0 c 1.172,-0.696 2.224,-1.667 2.881,-2.909 0.318,-0.622 0.539,-1.308 0.59,-2.02 0.021,-0.176 0.003,-0.354 0.006,-0.532 L 3.474,-5.729 C 3.464,-5.817 3.448,-5.905 3.436,-5.993 L 3.354,-6.521 3.211,-7.032 C 3,-7.706 2.701,-8.378 2.216,-8.933 1.741,-9.488 1.112,-9.938 0.394,-10.155 c -0.716,-0.204 -1.493,-0.298 -2.278,0.109 -0.193,0.087 -0.413,0.362 -0.48,0.541 -0.087,0.206 -0.136,0.433 -0.132,0.657 0.013,0.449 0.197,0.853 0.443,1.17 1.023,1.277 2.866,1.483 4.205,0.841 0.68,-0.309 1.262,-0.772 1.74,-1.304 0.488,-0.526 0.88,-1.173 1.062,-1.886 0.384,-1.441 -0.262,-3.003 -1.408,-3.833 -0.567,-0.424 -1.279,-0.672 -1.984,-0.62 -0.711,0.038 -1.352,0.413 -1.817,0.908 0.501,-0.463 1.151,-0.777 1.822,-0.765 0.666,0.003 1.312,0.264 1.815,0.687 1.022,0.835 1.497,2.274 1.093,3.489 -0.193,0.608 -0.558,1.147 -1.026,1.597 -0.46,0.461 -0.994,0.836 -1.575,1.063 -0.582,0.224 -1.208,0.289 -1.797,0.175 -0.582,-0.117 -1.155,-0.4 -1.505,-0.844 -0.181,-0.214 -0.292,-0.465 -0.309,-0.702 -0.007,-0.119 0.016,-0.232 0.054,-0.343 0.027,-0.051 0.053,-0.12 0.076,-0.129 0.009,-0.026 0.056,-0.057 0.104,-0.088 0.197,-0.127 0.506,-0.192 0.801,-0.209 0.303,-0.01 0.612,0.026 0.91,0.11 0.601,0.157 1.145,0.514 1.574,0.982 0.436,0.466 0.737,1.057 0.965,1.671 l 0.158,0.469 0.099,0.482 c 0.016,0.08 0.035,0.16 0.048,0.241 l 0.014,0.246 c 0.005,0.163 0.032,0.328 0.02,0.491 C 3.074,-4.29 2.898,-3.64 2.63,-3.031 2.087,-1.807 1.122,-0.772 0,0"
         style="fill:#3a3a3a;fill-opacity:1;fill-rule:nonzero;stroke:none"
         id="path1430" /></g><g
       id="g1432"
       transform="translate(268.10845,350.8092)"><path
         d="M 0,0 C 0,0 -2.654,-0.095 -2.315,-2.803 -1.977,-5.511 1.07,-3.48 -0.623,-2.126 -2.315,-0.772 0,0 0,0"
         style="fill:#3a3a3a;fill-opacity:1;fill-rule:nonzero;stroke:none"
         id="path1434" /></g><g
       id="g1436"
       transform="translate(263.25445,329.2199)"><path
         d="M 0,0 C 0,0 -1.508,-0.302 -2.235,1.251 -2.963,2.806 -0.65,2.756 -1.102,1.464 -1.554,0.172 0,0 0,0"
         style="fill:#3a3a3a;fill-opacity:1;fill-rule:nonzero;stroke:none"
         id="path1438" /></g><g
       id="g1440"
       transform="translate(273.70755,357.9606)"><path
         d="m 0,0 c -1.323,1.505 -2.92,2.782 -4.684,3.674 -1.751,0.904 -3.75,1.331 -5.641,0.992 -0.94,-0.16 -1.835,-0.538 -2.457,-1.152 -0.634,-0.595 -0.952,-1.451 -0.86,-2.266 0.079,-0.825 0.683,-1.527 1.531,-1.466 0.764,0.03 1.846,0.747 1.444,1.749 l 0.09,0.046 c 0.141,-0.218 0.254,-0.477 0.252,-0.768 0.004,-0.289 -0.108,-0.579 -0.271,-0.814 -0.168,-0.235 -0.38,-0.424 -0.608,-0.587 -0.121,-0.079 -0.219,-0.156 -0.389,-0.214 -0.139,-0.049 -0.281,-0.098 -0.427,-0.121 -0.577,-0.137 -1.265,0.038 -1.746,0.443 -0.484,0.409 -0.764,0.987 -0.879,1.573 -0.228,1.191 0.309,2.429 1.184,3.166 0.881,0.743 1.967,1.09 3.012,1.214 2.117,0.27 4.239,-0.319 6.007,-1.348 1.77,-1.052 3.289,-2.452 4.523,-4.059 z"
         style="fill:#3a3a3a;fill-opacity:1;fill-rule:nonzero;stroke:none"
         id="path1442" /></g><g
       id="g1444"
       transform="translate(268.80475,363.2013)"><path
         d="M 0,0 C -0.725,0.545 -1.489,1.038 -2.286,1.45 -3.074,1.875 -3.899,2.225 -4.742,2.441 -5.59,2.669 -6.441,2.657 -7.25,2.638 -7.66,2.621 -8.066,2.556 -8.481,2.46 -8.895,2.354 -9.303,2.197 -9.749,2.029 l -0.064,0.077 c 0.525,0.807 1.45,1.363 2.441,1.54 1.004,0.19 1.997,-0.096 2.877,-0.431 0.893,-0.34 1.712,-0.805 2.474,-1.333 0.752,-0.545 1.463,-1.133 2.091,-1.808 z"
         style="fill:#3a3a3a;fill-opacity:1;fill-rule:nonzero;stroke:none"
         id="path1446" /></g><g
       id="g1448"
       transform="translate(271.20905,360.8688)"><path
         d="M 0,0 C 0,0 0.677,-1.354 0.677,-2.031 L 4.4,-4.4 2.37,-0.677 c 0,0 -1.693,0 -2.37,0.677"
         style="fill:#3a3a3a;fill-opacity:1;fill-rule:nonzero;stroke:none"
         id="path1450" /></g><g
       id="g1452"
       transform="translate(263.93175,371.8693)"><path
         d="m 0,0 c -1.692,-0.677 -4.062,0.339 -4.062,0.339 0,0 1.016,-2.37 0.338,-4.062 0,0 3.047,0.338 5.078,-1.354 C -0.338,-3.046 0,0 0,0"
         style="fill:#3a3a3a;fill-opacity:1;fill-rule:nonzero;stroke:none"
         id="path1454" /></g><g
       id="g1456"
       transform="translate(439.89075,354.776)"><path
         d="m 0,0 c 1.318,1.719 2.377,3.65 2.925,5.713 0.574,2.045 0.527,4.257 -0.344,6.145 -0.426,0.945 -1.031,1.803 -1.743,2.565 -0.713,0.762 -1.528,1.427 -2.426,1.931 -1.777,1.029 -3.954,1.343 -5.893,0.735 -0.975,-0.278 -1.873,-0.794 -2.631,-1.459 -0.742,-0.681 -1.346,-1.522 -1.69,-2.468 -0.365,-0.938 -0.475,-1.969 -0.347,-2.98 0.051,-0.508 0.185,-1.004 0.343,-1.508 0.134,-0.465 0.381,-0.915 0.67,-1.323 0.592,-0.811 1.441,-1.429 2.419,-1.72 0.483,-0.165 1.001,-0.224 1.519,-0.257 0.257,-0.01 0.509,0.018 0.765,0.025 l 0.37,0.08 c 0.125,0.023 0.248,0.051 0.36,0.106 0.958,0.32 1.671,1.209 1.891,2.239 0.123,0.509 0.155,1.051 0.069,1.576 C -3.824,9.919 -3.994,10.46 -4.4,10.832 -3.959,10.5 -3.725,9.959 -3.592,9.429 -3.462,8.89 -3.457,8.323 -3.548,7.771 -3.699,6.668 -4.42,5.579 -5.517,5.124 -5.646,5.05 -5.785,5.011 -5.926,4.977 L -6.348,4.864 C -6.632,4.838 -6.922,4.794 -7.207,4.791 -7.771,4.797 -8.345,4.834 -8.9,4.992 c -1.123,0.271 -2.148,0.966 -2.867,1.881 -0.355,0.462 -0.659,0.967 -0.85,1.539 -0.182,0.526 -0.341,1.08 -0.415,1.653 -0.169,1.138 -0.072,2.331 0.327,3.429 0.379,1.106 1.08,2.081 1.927,2.871 0.865,0.774 1.891,1.37 3.005,1.696 2.223,0.678 4.709,0.299 6.663,-0.875 0.984,-0.582 1.852,-1.327 2.604,-2.165 C 2.249,14.186 2.879,13.222 3.307,12.169 4.2,10.06 4.112,7.654 3.398,5.571 3.044,4.521 2.557,3.527 1.984,2.595 1.413,1.662 0.755,0.783 0,0"
         style="fill:#3a3a3a;fill-opacity:1;fill-rule:nonzero;stroke:none"
         id="path1458" /></g><g
       id="g1460"
       transform="translate(429.09185,370.4298)"><path
         d="m 0,0 c -0.696,-1.172 -1.667,-2.224 -2.909,-2.881 -0.622,-0.318 -1.309,-0.539 -2.02,-0.59 -0.176,-0.021 -0.355,-0.003 -0.533,-0.006 l -0.267,0.003 c -0.088,0.01 -0.176,0.026 -0.264,0.038 l -0.528,0.082 -0.512,0.143 c -0.673,0.211 -1.345,0.51 -1.9,0.995 -0.555,0.475 -1.005,1.104 -1.222,1.822 -0.205,0.716 -0.298,1.493 0.108,2.278 0.088,0.193 0.363,0.413 0.541,0.48 0.207,0.087 0.433,0.136 0.658,0.132 0.449,-0.013 0.853,-0.197 1.169,-0.443 1.277,-1.023 1.483,-2.866 0.842,-4.205 -0.309,-0.68 -0.772,-1.262 -1.305,-1.74 -0.525,-0.488 -1.172,-0.88 -1.885,-1.062 -1.442,-0.385 -3.003,0.262 -3.834,1.408 -0.423,0.567 -0.671,1.279 -0.619,1.984 0.038,0.711 0.413,1.352 0.908,1.817 -0.463,-0.501 -0.777,-1.151 -0.765,-1.822 0.003,-0.666 0.264,-1.312 0.687,-1.815 0.835,-1.022 2.274,-1.497 3.489,-1.093 0.608,0.193 1.147,0.558 1.597,1.026 0.46,0.46 0.835,0.994 1.063,1.575 0.223,0.582 0.288,1.208 0.174,1.797 C -7.444,0.505 -7.726,1.078 -8.17,1.428 -8.384,1.609 -8.635,1.72 -8.872,1.737 -8.991,1.744 -9.104,1.721 -9.215,1.683 -9.266,1.656 -9.335,1.63 -9.345,1.607 -9.37,1.598 -9.401,1.551 -9.432,1.503 -9.559,1.306 -9.624,0.997 -9.642,0.702 c -0.009,-0.303 0.027,-0.612 0.11,-0.91 0.158,-0.601 0.515,-1.145 0.982,-1.574 0.467,-0.436 1.057,-0.737 1.672,-0.965 l 0.469,-0.158 0.481,-0.099 c 0.081,-0.016 0.161,-0.035 0.242,-0.048 l 0.245,-0.014 c 0.164,-0.005 0.328,-0.032 0.492,-0.02 0.659,0.012 1.308,0.188 1.917,0.456 1.225,0.543 2.26,1.508 3.032,2.63"
         style="fill:#3a3a3a;fill-opacity:1;fill-rule:nonzero;stroke:none"
         id="path1462" /></g><g
       id="g1464"
       transform="translate(436.26225,363.9694)"><path
         d="M 0,0 C 0,0 -0.095,2.654 -2.803,2.315 -5.511,1.977 -3.48,-1.07 -2.126,0.623 -0.772,2.315 0,0 0,0"
         style="fill:#3a3a3a;fill-opacity:1;fill-rule:nonzero;stroke:none"
         id="path1466" /></g><g
       id="g1468"
       transform="translate(414.67295,368.8229)"><path
         d="M 0,0 C 0,0 -0.302,1.508 1.252,2.236 2.806,2.963 2.756,0.65 1.464,1.102 0.172,1.554 0,0 0,0"
         style="fill:#3a3a3a;fill-opacity:1;fill-rule:nonzero;stroke:none"
         id="path1470" /></g><g
       id="g1472"
       transform="translate(443.41365,358.3703)"><path
         d="m 0,0 c 1.505,1.323 2.782,2.92 3.674,4.684 0.905,1.751 1.331,3.75 0.992,5.641 -0.16,0.94 -0.538,1.835 -1.152,2.457 -0.595,0.634 -1.451,0.952 -2.266,0.86 -0.824,-0.079 -1.527,-0.683 -1.466,-1.531 0.03,-0.764 0.747,-1.846 1.75,-1.444 l 0.045,-0.09 C 1.359,10.436 1.1,10.323 0.809,10.325 0.52,10.321 0.23,10.433 -0.005,10.596 c -0.235,0.168 -0.424,0.38 -0.586,0.608 -0.08,0.121 -0.156,0.219 -0.215,0.389 -0.048,0.139 -0.098,0.281 -0.12,0.427 -0.138,0.577 0.037,1.265 0.442,1.746 0.409,0.484 0.987,0.764 1.573,0.879 C 2.28,14.873 3.518,14.336 4.255,13.461 4.998,12.58 5.345,11.494 5.469,10.449 5.739,8.332 5.15,6.21 4.121,4.442 3.069,2.672 1.669,1.153 0.062,-0.081 Z"
         style="fill:#3a3a3a;fill-opacity:1;fill-rule:nonzero;stroke:none"
         id="path1474" /></g><g
       id="g1476"
       transform="translate(448.65435,363.2731)"><path
         d="M 0,0 C 0.545,0.725 1.038,1.489 1.45,2.286 1.875,3.074 2.225,3.899 2.441,4.742 2.669,5.59 2.657,6.441 2.638,7.25 2.621,7.66 2.556,8.066 2.46,8.481 2.354,8.895 2.197,9.303 2.029,9.749 L 2.107,9.813 C 2.914,9.288 3.469,8.363 3.646,7.372 3.836,6.368 3.55,5.375 3.215,4.495 2.875,3.602 2.41,2.783 1.882,2.021 1.337,1.269 0.749,0.558 0.074,-0.07 Z"
         style="fill:#3a3a3a;fill-opacity:1;fill-rule:nonzero;stroke:none"
         id="path1478" /></g><g
       id="g1480"
       transform="translate(440.22905,354.4372)"><path
         d="M 0,0 C 0.783,0.755 1.662,1.413 2.595,1.984 3.527,2.557 4.521,3.045 5.571,3.399 7.654,4.113 10.06,4.2 12.169,3.307 13.222,2.88 14.186,2.249 15.022,1.494 c 0.837,-0.751 1.582,-1.62 2.164,-2.604 1.174,-1.954 1.553,-4.44 0.875,-6.663 -0.326,-1.114 -0.922,-2.14 -1.696,-3.005 -0.79,-0.847 -1.765,-1.547 -2.871,-1.926 -1.098,-0.4 -2.291,-0.497 -3.429,-0.327 -0.572,0.073 -1.127,0.232 -1.653,0.415 -0.572,0.191 -1.077,0.494 -1.539,0.849 -0.915,0.719 -1.61,1.744 -1.881,2.867 -0.158,0.556 -0.194,1.13 -0.201,1.694 0.003,0.284 0.048,0.574 0.073,0.858 l 0.113,0.422 c 0.034,0.141 0.074,0.28 0.147,0.41 0.456,1.097 1.544,1.817 2.647,1.968 0.552,0.091 1.119,0.086 1.658,-0.044 C 9.959,-3.725 10.5,-3.958 10.832,-4.4 10.461,-3.994 9.919,-3.823 9.4,-3.742 8.875,-3.657 8.333,-3.689 7.824,-3.812 6.795,-4.032 5.905,-4.745 5.585,-5.702 5.53,-5.815 5.502,-5.938 5.479,-6.063 L 5.399,-6.432 C 5.393,-6.689 5.364,-6.94 5.374,-7.198 c 0.033,-0.518 0.092,-1.036 0.258,-1.519 0.29,-0.977 0.908,-1.826 1.719,-2.418 0.408,-0.29 0.858,-0.537 1.323,-0.671 0.504,-0.158 1.001,-0.292 1.508,-0.343 1.011,-0.128 2.042,-0.018 2.981,0.348 0.946,0.343 1.786,0.947 2.467,1.689 0.666,0.758 1.181,1.656 1.459,2.631 0.609,1.94 0.295,4.117 -0.735,5.894 -0.503,0.898 -1.169,1.712 -1.93,2.425 C 13.661,1.55 12.803,2.155 11.858,2.581 9.971,3.452 7.758,3.499 5.713,2.925 3.65,2.378 1.719,1.319 0,0"
         style="fill:#3a3a3a;fill-opacity:1;fill-rule:nonzero;stroke:none"
         id="path1482" /></g><g
       id="g1484"
       transform="translate(455.88285,343.6383)"><path
         d="m 0,0 c -1.122,-0.772 -2.087,-1.807 -2.63,-3.031 -0.268,-0.609 -0.444,-1.259 -0.456,-1.918 -0.012,-0.163 0.015,-0.328 0.02,-0.491 l 0.014,-0.246 c 0.013,-0.081 0.033,-0.161 0.049,-0.241 l 0.098,-0.482 0.158,-0.469 c 0.228,-0.614 0.529,-1.205 0.965,-1.671 0.429,-0.468 0.973,-0.825 1.574,-0.982 0.298,-0.084 0.608,-0.12 0.91,-0.11 0.295,0.017 0.604,0.082 0.802,0.209 0.047,0.031 0.094,0.062 0.103,0.088 0.023,0.009 0.049,0.078 0.076,0.129 0.038,0.111 0.061,0.224 0.054,0.343 -0.016,0.237 -0.127,0.488 -0.309,0.702 -0.35,0.444 -0.923,0.727 -1.504,0.844 -0.59,0.114 -1.216,0.049 -1.797,-0.175 -0.582,-0.227 -1.116,-0.602 -1.576,-1.063 -0.468,-0.45 -0.833,-0.989 -1.026,-1.597 -0.404,-1.215 0.071,-2.654 1.093,-3.489 0.503,-0.423 1.15,-0.684 1.815,-0.687 0.671,-0.012 1.321,0.302 1.822,0.765 -0.465,-0.495 -1.106,-0.87 -1.817,-0.908 -0.705,-0.052 -1.417,0.196 -1.984,0.62 -1.146,0.83 -1.792,2.392 -1.408,3.833 0.182,0.713 0.574,1.36 1.063,1.886 0.477,0.532 1.059,0.995 1.739,1.304 1.34,0.642 3.182,0.436 4.205,-0.841 C 2.3,-7.995 2.483,-8.399 2.496,-8.848 2.5,-9.072 2.451,-9.299 2.364,-9.505 2.297,-9.684 2.077,-9.959 1.884,-10.046 c -0.785,-0.407 -1.562,-0.313 -2.278,-0.109 -0.718,0.217 -1.347,0.667 -1.822,1.222 -0.485,0.555 -0.784,1.227 -0.994,1.901 l -0.144,0.511 -0.082,0.528 c -0.012,0.088 -0.028,0.176 -0.037,0.264 l -0.004,0.268 c 0.003,0.178 -0.015,0.356 0.006,0.532 0.051,0.712 0.272,1.398 0.59,2.02 C -2.223,-1.667 -1.172,-0.696 0,0"
         style="fill:#3a3a3a;fill-opacity:1;fill-rule:nonzero;stroke:none"
         id="path1486" /></g><g
       id="g1488"
       transform="translate(449.42245,350.8092)"><path
         d="M 0,0 C 0,0 2.654,-0.095 2.315,-2.803 1.977,-5.511 -1.07,-3.48 0.623,-2.126 2.315,-0.772 0,0 0,0"
         style="fill:#3a3a3a;fill-opacity:1;fill-rule:nonzero;stroke:none"
         id="path1490" /></g><g
       id="g1492"
       transform="translate(454.27645,329.2199)"><path
         d="M 0,0 C 0,0 1.508,-0.302 2.235,1.251 2.963,2.806 0.65,2.756 1.102,1.464 1.554,0.172 0,0 0,0"
         style="fill:#3a3a3a;fill-opacity:1;fill-rule:nonzero;stroke:none"
         id="path1494" /></g><g
       id="g1496"
       transform="translate(443.74275,358.0221)"><path
         d="m 0,0 c 1.234,1.608 2.753,3.007 4.522,4.059 1.769,1.029 3.891,1.618 6.007,1.348 1.046,-0.124 2.131,-0.47 3.013,-1.214 0.875,-0.736 1.412,-1.975 1.184,-3.166 -0.116,-0.586 -0.394,-1.164 -0.879,-1.572 -0.482,-0.405 -1.169,-0.581 -1.746,-0.443 -0.146,0.023 -0.288,0.071 -0.427,0.121 -0.17,0.058 -0.268,0.135 -0.39,0.214 -0.227,0.162 -0.44,0.351 -0.607,0.587 -0.164,0.235 -0.275,0.524 -0.272,0.814 -0.002,0.29 0.112,0.55 0.252,0.767 L 10.748,1.47 c -0.402,-1.003 0.68,-1.72 1.444,-1.75 0.849,-0.061 1.451,0.642 1.531,1.466 0.091,0.816 -0.226,1.672 -0.86,2.266 C 12.241,4.067 11.345,4.444 10.406,4.604 8.515,4.943 6.515,4.517 4.764,3.612 3.001,2.72 1.404,1.444 0.081,-0.062 Z"
         style="fill:#3a3a3a;fill-opacity:1;fill-rule:nonzero;stroke:none"
         id="path1498" /></g><g
       id="g1500"
       transform="translate(448.65635,363.275)"><path
         d="M 0,0 C 0.627,0.675 1.338,1.264 2.09,1.809 2.853,2.336 3.672,2.802 4.564,3.141 5.445,3.476 6.438,3.763 7.442,3.573 8.434,3.395 9.357,2.839 9.884,2.033 L 9.819,1.955 C 9.373,2.124 8.965,2.28 8.552,2.386 8.136,2.482 7.73,2.547 7.32,2.564 6.511,2.583 5.66,2.596 4.812,2.368 3.969,2.151 3.144,1.801 2.356,1.376 1.559,0.964 0.795,0.471 0.07,-0.074 Z"
         style="fill:#3a3a3a;fill-opacity:1;fill-rule:nonzero;stroke:none"
         id="path1502" /></g><g
       id="g1504"
       transform="translate(446.32185,360.8688)"><path
         d="M 0,0 C 0,0 -0.677,-1.354 -0.677,-2.031 L -4.4,-4.4 l 2.03,3.723 c 0,0 1.693,0 2.37,0.677"
         style="fill:#3a3a3a;fill-opacity:1;fill-rule:nonzero;stroke:none"
         id="path1506" /></g><g
       id="g1508"
       transform="translate(453.59915,371.8693)"><path
         d="m 0,0 c 1.692,-0.677 4.062,0.339 4.062,0.339 0,0 -1.016,-2.37 -0.338,-4.062 0,0 -3.047,0.338 -5.078,-1.354 C 0.339,-3.046 0,0 0,0"
         style="fill:#3a3a3a;fill-opacity:1;fill-rule:nonzero;stroke:none"
         id="path1510" /></g><g
       id="g1512"
       transform="translate(439.89075,192.0548)"><path
         d="m 0,0 c 0.755,-0.783 1.413,-1.662 1.984,-2.595 0.573,-0.932 1.06,-1.926 1.414,-2.976 0.714,-2.083 0.802,-4.489 -0.091,-6.598 -0.428,-1.053 -1.058,-2.017 -1.813,-2.852 -0.752,-0.838 -1.62,-1.583 -2.604,-2.165 -1.954,-1.174 -4.44,-1.553 -6.663,-0.875 -1.114,0.326 -2.14,0.922 -3.005,1.696 -0.847,0.79 -1.548,1.765 -1.927,2.871 -0.399,1.098 -0.496,2.291 -0.327,3.429 0.074,0.573 0.233,1.127 0.415,1.653 0.191,0.572 0.495,1.077 0.85,1.539 0.719,0.915 1.744,1.61 2.867,1.881 0.555,0.158 1.129,0.195 1.693,0.201 0.285,-0.003 0.575,-0.047 0.859,-0.073 l 0.422,-0.113 c 0.141,-0.034 0.28,-0.073 0.409,-0.147 1.097,-0.455 1.818,-1.544 1.969,-2.647 0.091,-0.552 0.086,-1.119 -0.044,-1.658 -0.133,-0.53 -0.367,-1.071 -0.808,-1.403 0.406,0.372 0.576,0.913 0.657,1.432 0.086,0.525 0.054,1.067 -0.069,1.576 -0.22,1.03 -0.933,1.919 -1.891,2.239 -0.112,0.055 -0.235,0.083 -0.36,0.106 l -0.37,0.08 c -0.256,0.007 -0.508,0.035 -0.765,0.025 -0.518,-0.033 -1.036,-0.092 -1.519,-0.257 -0.978,-0.291 -1.827,-0.909 -2.419,-1.72 -0.289,-0.408 -0.536,-0.858 -0.67,-1.323 -0.158,-0.504 -0.292,-1 -0.343,-1.508 -0.128,-1.011 -0.018,-2.042 0.347,-2.98 0.344,-0.946 0.948,-1.787 1.69,-2.468 0.758,-0.665 1.656,-1.181 2.631,-1.459 1.939,-0.608 4.116,-0.294 5.893,0.735 0.898,0.504 1.713,1.169 2.426,1.931 0.712,0.762 1.317,1.62 1.743,2.565 0.871,1.888 0.918,4.1 0.344,6.145 C 2.377,-3.65 1.318,-1.719 0,0"
         style="fill:#3a3a3a;fill-opacity:1;fill-rule:nonzero;stroke:none"
         id="path1514" /></g><g
       id="g1516"
       transform="translate(429.09185,176.401)"><path
         d="M 0,0 C -0.772,1.122 -1.807,2.087 -3.032,2.63 -3.641,2.898 -4.29,3.074 -4.949,3.086 -5.113,3.098 -5.277,3.071 -5.441,3.066 L -5.686,3.052 C -5.767,3.039 -5.847,3.02 -5.928,3.004 L -6.409,2.905 -6.878,2.747 C -7.493,2.519 -8.083,2.218 -8.55,1.782 -9.017,1.353 -9.374,0.809 -9.532,0.208 c -0.083,-0.298 -0.119,-0.607 -0.11,-0.91 0.018,-0.295 0.083,-0.604 0.21,-0.801 0.031,-0.048 0.062,-0.095 0.087,-0.104 0.01,-0.023 0.079,-0.049 0.13,-0.076 0.111,-0.038 0.224,-0.061 0.343,-0.054 0.237,0.017 0.488,0.128 0.702,0.309 0.444,0.35 0.726,0.923 0.843,1.505 0.114,0.589 0.049,1.215 -0.174,1.797 -0.228,0.581 -0.603,1.115 -1.063,1.575 -0.45,0.468 -0.989,0.833 -1.597,1.026 -1.215,0.404 -2.654,-0.071 -3.489,-1.093 -0.423,-0.503 -0.684,-1.149 -0.687,-1.815 -0.012,-0.671 0.302,-1.321 0.765,-1.822 -0.495,0.465 -0.87,1.106 -0.908,1.817 -0.052,0.705 0.196,1.417 0.619,1.984 0.831,1.146 2.392,1.793 3.834,1.408 0.713,-0.182 1.36,-0.574 1.885,-1.062 0.533,-0.478 0.996,-1.06 1.305,-1.74 0.641,-1.339 0.435,-3.182 -0.842,-4.205 -0.316,-0.246 -0.72,-0.43 -1.169,-0.443 -0.225,-0.004 -0.451,0.045 -0.658,0.132 -0.178,0.067 -0.453,0.287 -0.541,0.48 -0.406,0.785 -0.313,1.562 -0.108,2.278 0.217,0.718 0.667,1.347 1.222,1.822 0.555,0.485 1.227,0.784 1.9,0.995 l 0.512,0.143 0.528,0.082 c 0.088,0.012 0.176,0.028 0.264,0.038 l 0.267,0.003 C -5.284,3.474 -5.105,3.492 -4.929,3.471 -4.218,3.42 -3.531,3.199 -2.909,2.881 -1.667,2.224 -0.696,1.172 0,0"
         style="fill:#3a3a3a;fill-opacity:1;fill-rule:nonzero;stroke:none"
         id="path1518" /></g><g
       id="g1520"
       transform="translate(436.26225,182.8615)"><path
         d="M 0,0 C 0,0 -0.095,-2.654 -2.803,-2.315 -5.511,-1.977 -3.48,1.07 -2.126,-0.623 -0.772,-2.315 0,0 0,0"
         style="fill:#3a3a3a;fill-opacity:1;fill-rule:nonzero;stroke:none"
         id="path1522" /></g><g
       id="g1524"
       transform="translate(414.67295,178.008)"><path
         d="M 0,0 C 0,0 -0.302,-1.508 1.252,-2.236 2.806,-2.963 2.756,-0.65 1.464,-1.102 0.172,-1.554 0,0 0,0"
         style="fill:#3a3a3a;fill-opacity:1;fill-rule:nonzero;stroke:none"
         id="path1526" /></g><g
       id="g1528"
       transform="translate(443.47565,188.5412)"><path
         d="m 0,0 c 1.607,-1.233 3.007,-2.753 4.059,-4.522 1.029,-1.769 1.618,-3.891 1.348,-6.007 -0.124,-1.046 -0.471,-2.131 -1.214,-3.013 -0.737,-0.875 -1.975,-1.412 -3.166,-1.184 -0.586,0.116 -1.164,0.395 -1.573,0.879 -0.405,0.482 -0.58,1.169 -0.442,1.746 0.022,0.146 0.071,0.288 0.12,0.427 0.059,0.17 0.135,0.268 0.215,0.39 0.162,0.227 0.351,0.44 0.586,0.607 0.235,0.164 0.525,0.275 0.814,0.272 0.291,0.002 0.55,-0.111 0.768,-0.252 L 1.47,-10.748 c -1.003,0.402 -1.72,-0.68 -1.75,-1.444 -0.061,-0.848 0.642,-1.451 1.466,-1.531 0.815,-0.091 1.671,0.227 2.266,0.86 0.614,0.622 0.992,1.518 1.152,2.457 0.339,1.892 -0.087,3.891 -0.992,5.642 C 2.72,-3 1.443,-1.404 -0.062,-0.081 Z"
         style="fill:#3a3a3a;fill-opacity:1;fill-rule:nonzero;stroke:none"
         id="path1530" /></g><g
       id="g1532"
       transform="translate(448.72815,183.6276)"><path
         d="M 0,0 C 0.675,-0.627 1.264,-1.338 1.809,-2.09 2.336,-2.853 2.802,-3.672 3.141,-4.564 3.476,-5.445 3.763,-6.438 3.573,-7.441 3.395,-8.433 2.84,-9.357 2.033,-9.883 l -0.078,0.065 c 0.169,0.445 0.326,0.853 0.432,1.267 0.095,0.415 0.16,0.822 0.177,1.231 0.019,0.809 0.032,1.66 -0.196,2.508 -0.217,0.843 -0.567,1.668 -0.992,2.456 -0.412,0.797 -0.905,1.561 -1.45,2.286 z"
         style="fill:#3a3a3a;fill-opacity:1;fill-rule:nonzero;stroke:none"
         id="path1534" /></g><g
       id="g1536"
       transform="translate(440.22905,192.3937)"><path
         d="m 0,0 c 1.719,-1.319 3.65,-2.378 5.713,-2.925 2.045,-0.574 4.258,-0.527 6.145,0.344 0.945,0.426 1.803,1.031 2.566,1.743 0.761,0.713 1.427,1.527 1.93,2.425 1.03,1.777 1.344,3.954 0.735,5.894 -0.278,0.975 -0.793,1.873 -1.459,2.631 -0.681,0.742 -1.521,1.346 -2.467,1.689 -0.939,0.366 -1.97,0.476 -2.981,0.348 C 9.675,12.098 9.178,11.964 8.674,11.806 8.209,11.672 7.759,11.425 7.351,11.135 6.54,10.543 5.922,9.694 5.632,8.717 5.466,8.234 5.407,7.716 5.374,7.198 5.364,6.94 5.393,6.689 5.399,6.432 L 5.479,6.063 C 5.502,5.938 5.53,5.815 5.585,5.702 5.905,4.745 6.795,4.032 7.824,3.812 8.333,3.689 8.875,3.657 9.4,3.742 9.919,3.823 10.461,3.994 10.832,4.4 10.5,3.958 9.959,3.725 9.429,3.592 8.89,3.462 8.323,3.457 7.771,3.548 6.668,3.699 5.58,4.419 5.124,5.516 5.051,5.646 5.011,5.785 4.977,5.926 L 4.864,6.348 C 4.839,6.632 4.794,6.922 4.791,7.206 4.798,7.77 4.834,8.344 4.992,8.9 c 0.271,1.123 0.966,2.148 1.881,2.867 0.462,0.355 0.967,0.658 1.539,0.849 0.526,0.183 1.081,0.342 1.653,0.415 1.138,0.17 2.331,0.073 3.429,-0.327 1.106,-0.379 2.081,-1.079 2.871,-1.926 0.774,-0.865 1.37,-1.891 1.696,-3.005 C 18.739,5.55 18.36,3.064 17.186,1.11 16.604,0.126 15.859,-0.743 15.022,-1.494 14.186,-2.249 13.222,-2.88 12.169,-3.307 10.06,-4.2 7.654,-4.113 5.571,-3.399 4.521,-3.045 3.527,-2.557 2.595,-1.984 1.662,-1.413 0.783,-0.755 0,0"
         style="fill:#3a3a3a;fill-opacity:1;fill-rule:nonzero;stroke:none"
         id="path1538" /></g><g
       id="g1540"
       transform="translate(455.88285,203.1925)"><path
         d="m 0,0 c -1.172,0.696 -2.223,1.667 -2.881,2.909 -0.318,0.622 -0.539,1.308 -0.59,2.02 -0.021,0.176 -0.003,0.354 -0.006,0.532 l 0.004,0.268 c 0.009,0.088 0.025,0.176 0.037,0.264 l 0.082,0.528 0.144,0.511 c 0.21,0.674 0.509,1.346 0.994,1.901 0.475,0.555 1.104,1.005 1.822,1.222 0.716,0.204 1.493,0.298 2.278,-0.109 C 2.077,9.959 2.297,9.684 2.364,9.505 2.451,9.299 2.5,9.072 2.496,8.848 2.483,8.399 2.3,7.995 2.053,7.678 1.03,6.401 -0.812,6.195 -2.152,6.837 c -0.68,0.309 -1.262,0.772 -1.739,1.304 -0.489,0.526 -0.881,1.173 -1.063,1.886 -0.384,1.441 0.262,3.003 1.408,3.833 0.567,0.424 1.279,0.672 1.984,0.62 0.711,-0.038 1.352,-0.413 1.817,-0.908 -0.501,0.463 -1.151,0.777 -1.822,0.765 -0.665,-0.003 -1.312,-0.264 -1.815,-0.687 -1.022,-0.835 -1.497,-2.274 -1.093,-3.489 0.193,-0.608 0.558,-1.147 1.026,-1.597 0.46,-0.461 0.994,-0.836 1.576,-1.063 0.581,-0.224 1.207,-0.289 1.797,-0.175 0.581,0.117 1.154,0.4 1.504,0.844 C 1.61,8.384 1.721,8.635 1.737,8.872 1.744,8.991 1.721,9.104 1.683,9.215 1.656,9.266 1.63,9.335 1.607,9.344 1.598,9.37 1.551,9.401 1.504,9.432 1.306,9.559 0.997,9.624 0.702,9.641 0.4,9.651 0.09,9.615 -0.208,9.531 -0.809,9.374 -1.353,9.017 -1.782,8.549 -2.218,8.083 -2.519,7.492 -2.747,6.878 L -2.905,6.409 -3.003,5.927 C -3.019,5.847 -3.039,5.767 -3.052,5.686 L -3.066,5.44 C -3.071,5.277 -3.098,5.112 -3.086,4.949 -3.074,4.29 -2.898,3.64 -2.63,3.031 -2.087,1.807 -1.122,0.772 0,0"
         style="fill:#3a3a3a;fill-opacity:1;fill-rule:nonzero;stroke:none"
         id="path1542" /></g><g
       id="g1544"
       transform="translate(449.42245,196.0216)"><path
         d="M 0,0 C 0,0 2.654,0.095 2.315,2.803 1.977,5.511 -1.07,3.48 0.623,2.126 2.315,0.772 0,0 0,0"
         style="fill:#3a3a3a;fill-opacity:1;fill-rule:nonzero;stroke:none"
         id="path1546" /></g><g
       id="g1548"
       transform="translate(454.27645,217.611)"><path
         d="M 0,0 C 0,0 1.508,0.302 2.235,-1.251 2.963,-2.806 0.65,-2.756 1.102,-1.464 1.554,-0.172 0,0 0,0"
         style="fill:#3a3a3a;fill-opacity:1;fill-rule:nonzero;stroke:none"
         id="path1550" /></g><g
       id="g1552"
       transform="translate(443.82335,188.8703)"><path
         d="m 0,0 c 1.323,-1.505 2.92,-2.782 4.684,-3.674 1.751,-0.904 3.75,-1.331 5.641,-0.992 0.94,0.16 1.835,0.538 2.457,1.152 0.634,0.595 0.952,1.451 0.86,2.266 -0.079,0.825 -0.682,1.527 -1.531,1.466 -0.764,-0.03 -1.845,-0.747 -1.444,-1.749 l -0.09,-0.046 c -0.141,0.218 -0.254,0.477 -0.252,0.768 -0.004,0.289 0.108,0.579 0.271,0.814 0.168,0.235 0.38,0.424 0.608,0.587 0.121,0.079 0.219,0.156 0.389,0.214 0.139,0.049 0.281,0.098 0.427,0.121 0.578,0.137 1.265,-0.038 1.746,-0.443 0.485,-0.409 0.764,-0.987 0.879,-1.573 0.228,-1.191 -0.309,-2.429 -1.184,-3.166 -0.881,-0.743 -1.967,-1.09 -3.012,-1.214 -2.116,-0.27 -4.239,0.319 -6.007,1.348 -1.769,1.052 -3.289,2.452 -4.523,4.059 z"
         style="fill:#3a3a3a;fill-opacity:1;fill-rule:nonzero;stroke:none"
         id="path1554" /></g><g
       id="g1556"
       transform="translate(448.72615,183.6295)"><path
         d="m 0,0 c 0.725,-0.545 1.489,-1.038 2.286,-1.45 0.788,-0.425 1.613,-0.775 2.457,-0.991 0.847,-0.228 1.698,-0.216 2.507,-0.197 0.41,0.017 0.816,0.082 1.232,0.178 0.413,0.106 0.821,0.263 1.267,0.431 L 9.814,-2.107 C 9.288,-2.913 8.364,-3.469 7.372,-3.646 6.368,-3.836 5.375,-3.55 4.495,-3.215 3.602,-2.875 2.783,-2.41 2.021,-1.882 1.269,-1.337 0.558,-0.749 -0.07,-0.074 Z"
         style="fill:#3a3a3a;fill-opacity:1;fill-rule:nonzero;stroke:none"
         id="path1558" /></g><g
       id="g1560"
       transform="translate(446.32185,185.9621)"><path
         d="M 0,0 C 0,0 -0.677,1.354 -0.677,2.031 L -4.4,4.4 -2.37,0.677 c 0,0 1.693,0 2.37,-0.677"
         style="fill:#3a3a3a;fill-opacity:1;fill-rule:nonzero;stroke:none"
         id="path1562" /></g><g
       id="g1564"
       transform="translate(453.59915,174.9611)"><path
         d="m 0,0 c 1.692,0.677 4.062,-0.338 4.062,-0.338 0,0 -1.016,2.369 -0.338,4.062 0,0 -3.047,-0.339 -5.078,1.354 C 0.339,3.047 0,0 0,0"
         style="fill:#3a3a3a;fill-opacity:1;fill-rule:nonzero;stroke:none"
         id="path1566" /></g><g
       id="g1568"
       transform="translate(277.64075,192.0548)"><path
         d="m 0,0 c -1.319,-1.719 -2.378,-3.65 -2.925,-5.713 -0.574,-2.045 -0.527,-4.257 0.344,-6.145 0.426,-0.945 1.031,-1.803 1.743,-2.565 0.713,-0.762 1.527,-1.427 2.425,-1.931 1.777,-1.029 3.954,-1.343 5.894,-0.735 0.975,0.278 1.873,0.794 2.631,1.459 0.742,0.681 1.346,1.522 1.689,2.468 0.366,0.938 0.476,1.969 0.348,2.98 -0.051,0.508 -0.185,1.004 -0.343,1.508 -0.134,0.465 -0.381,0.915 -0.671,1.323 -0.592,0.811 -1.441,1.429 -2.418,1.72 C 8.234,-5.466 7.716,-5.407 7.198,-5.374 6.94,-5.364 6.689,-5.392 6.432,-5.399 L 6.063,-5.479 C 5.938,-5.502 5.815,-5.53 5.702,-5.585 4.745,-5.905 4.032,-6.794 3.812,-7.824 3.689,-8.333 3.657,-8.875 3.742,-9.4 3.823,-9.919 3.994,-10.46 4.4,-10.832 3.958,-10.5 3.725,-9.959 3.592,-9.429 c -0.13,0.539 -0.135,1.106 -0.044,1.658 0.151,1.103 0.871,2.192 1.968,2.647 0.13,0.074 0.269,0.113 0.41,0.147 l 0.422,0.113 c 0.284,0.026 0.574,0.07 0.858,0.073 0.564,-0.006 1.138,-0.043 1.694,-0.201 1.123,-0.271 2.147,-0.966 2.867,-1.881 0.355,-0.462 0.658,-0.967 0.849,-1.539 0.183,-0.526 0.342,-1.08 0.415,-1.653 0.17,-1.138 0.073,-2.331 -0.327,-3.429 -0.379,-1.106 -1.08,-2.081 -1.926,-2.871 -0.865,-0.774 -1.891,-1.37 -3.005,-1.696 -2.223,-0.678 -4.709,-0.299 -6.663,0.875 -0.984,0.582 -1.853,1.327 -2.604,2.165 -0.755,0.835 -1.386,1.799 -1.813,2.852 -0.893,2.109 -0.806,4.515 -0.092,6.598 0.354,1.05 0.842,2.044 1.415,2.976 C -1.413,-1.662 -0.755,-0.783 0,0"
         style="fill:#3a3a3a;fill-opacity:1;fill-rule:nonzero;stroke:none"
         id="path1570" /></g><g
       id="g1572"
       transform="translate(288.43955,176.401)"><path
         d="m 0,0 c 0.696,1.172 1.667,2.224 2.909,2.881 0.622,0.318 1.308,0.539 2.02,0.59 0.176,0.021 0.354,0.003 0.532,0.006 L 5.729,3.474 C 5.817,3.464 5.905,3.448 5.993,3.436 L 6.521,3.354 7.032,3.211 C 7.706,3 8.378,2.701 8.933,2.216 9.488,1.741 9.938,1.112 10.155,0.394 10.359,-0.322 10.453,-1.099 10.046,-1.884 9.959,-2.077 9.684,-2.297 9.505,-2.364 9.299,-2.451 9.072,-2.5 8.848,-2.496 8.399,-2.483 7.995,-2.299 7.678,-2.053 6.401,-1.03 6.195,0.813 6.837,2.152 7.146,2.832 7.609,3.414 8.141,3.892 8.667,4.38 9.314,4.772 10.027,4.954 11.468,5.339 13.03,4.692 13.86,3.546 14.284,2.979 14.532,2.267 14.48,1.562 14.442,0.851 14.067,0.21 13.572,-0.255 14.035,0.246 14.349,0.896 14.337,1.567 14.334,2.233 14.073,2.879 13.65,3.382 12.815,4.404 11.376,4.879 10.161,4.475 9.553,4.282 9.014,3.917 8.564,3.449 8.103,2.989 7.728,2.455 7.501,1.874 7.277,1.292 7.212,0.666 7.326,0.077 c 0.117,-0.582 0.4,-1.155 0.844,-1.505 0.214,-0.181 0.465,-0.292 0.702,-0.309 0.119,-0.007 0.232,0.016 0.343,0.054 0.051,0.027 0.12,0.053 0.129,0.076 0.026,0.009 0.057,0.056 0.088,0.104 0.127,0.197 0.192,0.506 0.209,0.801 0.01,0.303 -0.026,0.612 -0.11,0.91 C 9.374,0.809 9.017,1.353 8.549,1.782 8.083,2.218 7.492,2.519 6.878,2.747 L 6.409,2.905 5.927,3.004 C 5.847,3.02 5.767,3.039 5.686,3.052 L 5.44,3.066 C 5.277,3.071 5.112,3.098 4.949,3.086 4.29,3.074 3.64,2.898 3.031,2.63 1.807,2.087 0.772,1.122 0,0"
         style="fill:#3a3a3a;fill-opacity:1;fill-rule:nonzero;stroke:none"
         id="path1574" /></g><g
       id="g1576"
       transform="translate(281.26865,182.8615)"><path
         d="M 0,0 C 0,0 0.095,-2.654 2.803,-2.315 5.511,-1.977 3.48,1.07 2.126,-0.623 0.772,-2.315 0,0 0,0"
         style="fill:#3a3a3a;fill-opacity:1;fill-rule:nonzero;stroke:none"
         id="path1578" /></g><g
       id="g1580"
       transform="translate(302.85795,178.008)"><path
         d="M 0,0 C 0,0 0.302,-1.508 -1.251,-2.236 -2.806,-2.963 -2.756,-0.65 -1.464,-1.102 -0.172,-1.554 0,0 0,0"
         style="fill:#3a3a3a;fill-opacity:1;fill-rule:nonzero;stroke:none"
         id="path1582" /></g><g
       id="g1584"
       transform="translate(274.11725,188.4606)"><path
         d="m 0,0 c -1.505,-1.323 -2.782,-2.92 -3.674,-4.684 -0.904,-1.751 -1.331,-3.75 -0.992,-5.641 0.16,-0.94 0.538,-1.835 1.152,-2.457 0.595,-0.634 1.451,-0.952 2.266,-0.86 0.825,0.079 1.527,0.683 1.466,1.531 -0.03,0.764 -0.747,1.846 -1.749,1.444 l -0.046,0.09 c 0.218,0.141 0.477,0.254 0.768,0.252 0.289,0.004 0.579,-0.108 0.814,-0.271 0.235,-0.168 0.424,-0.38 0.586,-0.608 0.08,-0.121 0.156,-0.219 0.215,-0.389 0.049,-0.139 0.098,-0.281 0.121,-0.427 0.137,-0.577 -0.038,-1.265 -0.443,-1.746 -0.409,-0.484 -0.987,-0.764 -1.573,-0.879 -1.191,-0.228 -2.429,0.309 -3.166,1.184 -0.743,0.881 -1.09,1.967 -1.214,3.012 -0.27,2.117 0.319,4.239 1.348,6.007 1.052,1.77 2.452,3.289 4.059,4.523 z"
         style="fill:#3a3a3a;fill-opacity:1;fill-rule:nonzero;stroke:none"
         id="path1586" /></g><g
       id="g1588"
       transform="translate(268.87655,183.5578)"><path
         d="m 0,0 c -0.545,-0.725 -1.038,-1.489 -1.45,-2.286 -0.425,-0.788 -0.775,-1.613 -0.991,-2.456 -0.228,-0.848 -0.216,-1.699 -0.197,-2.508 0.017,-0.41 0.082,-0.816 0.178,-1.231 0.106,-0.414 0.263,-0.822 0.431,-1.268 l -0.078,-0.064 c -0.806,0.525 -1.362,1.45 -1.539,2.441 -0.19,1.004 0.096,1.997 0.431,2.877 0.34,0.893 0.805,1.712 1.333,2.474 0.545,0.752 1.133,1.463 1.808,2.091 z"
         style="fill:#3a3a3a;fill-opacity:1;fill-rule:nonzero;stroke:none"
         id="path1590" /></g><g
       id="g1592"
       transform="translate(277.30185,192.3937)"><path
         d="m 0,0 c -0.783,-0.755 -1.662,-1.413 -2.595,-1.984 -0.932,-0.573 -1.926,-1.061 -2.976,-1.415 -2.083,-0.714 -4.489,-0.801 -6.598,0.092 -1.053,0.427 -2.017,1.058 -2.852,1.813 -0.838,0.751 -1.583,1.62 -2.165,2.604 -1.174,1.954 -1.553,4.44 -0.875,6.663 0.326,1.114 0.922,2.14 1.696,3.005 0.79,0.847 1.765,1.547 2.871,1.926 1.098,0.4 2.291,0.497 3.429,0.327 0.573,-0.073 1.127,-0.232 1.653,-0.415 0.572,-0.191 1.077,-0.494 1.539,-0.849 0.915,-0.719 1.61,-1.744 1.881,-2.867 C -4.834,8.344 -4.797,7.77 -4.791,7.206 -4.794,6.922 -4.838,6.632 -4.864,6.348 L -4.977,5.926 C -5.011,5.785 -5.05,5.646 -5.124,5.516 -5.579,4.419 -6.668,3.699 -7.771,3.548 -8.323,3.457 -8.89,3.462 -9.429,3.592 -9.959,3.725 -10.5,3.958 -10.832,4.4 -10.46,3.994 -9.919,3.823 -9.4,3.742 c 0.525,-0.085 1.067,-0.053 1.576,0.07 1.03,0.22 1.919,0.933 2.239,1.89 0.055,0.113 0.083,0.236 0.106,0.361 l 0.08,0.369 c 0.007,0.257 0.035,0.508 0.025,0.766 -0.033,0.518 -0.092,1.036 -0.257,1.519 -0.291,0.977 -0.909,1.826 -1.72,2.418 -0.408,0.29 -0.858,0.537 -1.323,0.671 -0.504,0.158 -1,0.292 -1.508,0.343 -1.011,0.128 -2.042,0.018 -2.98,-0.348 -0.946,-0.343 -1.787,-0.947 -2.468,-1.689 -0.666,-0.758 -1.181,-1.656 -1.459,-2.631 -0.608,-1.94 -0.294,-4.117 0.735,-5.894 0.503,-0.898 1.169,-1.712 1.931,-2.425 0.762,-0.712 1.62,-1.317 2.565,-1.743 1.888,-0.871 4.1,-0.918 6.145,-0.344 C -3.65,-2.378 -1.719,-1.319 0,0"
         style="fill:#3a3a3a;fill-opacity:1;fill-rule:nonzero;stroke:none"
         id="path1594" /></g><g
       id="g1596"
       transform="translate(261.64805,203.1925)"><path
         d="M 0,0 C 1.122,0.772 2.087,1.807 2.63,3.031 2.898,3.64 3.074,4.29 3.086,4.949 3.098,5.112 3.071,5.277 3.066,5.44 L 3.052,5.686 C 3.039,5.767 3.02,5.847 3.004,5.927 L 2.905,6.409 2.747,6.878 C 2.519,7.492 2.218,8.083 1.782,8.549 1.353,9.017 0.809,9.374 0.208,9.531 -0.09,9.615 -0.399,9.651 -0.702,9.641 -0.997,9.624 -1.306,9.559 -1.503,9.432 -1.551,9.401 -1.598,9.37 -1.607,9.344 -1.63,9.335 -1.656,9.266 -1.683,9.215 -1.721,9.104 -1.744,8.991 -1.737,8.872 -1.72,8.635 -1.609,8.384 -1.428,8.17 -1.078,7.726 -0.505,7.443 0.077,7.326 0.666,7.212 1.292,7.277 1.874,7.501 2.455,7.728 2.989,8.103 3.449,8.564 3.917,9.014 4.282,9.553 4.475,10.161 4.879,11.376 4.404,12.815 3.382,13.65 2.879,14.073 2.233,14.334 1.567,14.337 0.896,14.349 0.246,14.035 -0.255,13.572 0.21,14.067 0.851,14.442 1.562,14.48 2.267,14.532 2.979,14.284 3.546,13.86 4.692,13.03 5.338,11.468 4.954,10.027 4.772,9.314 4.38,8.667 3.892,8.141 3.414,7.609 2.832,7.146 2.152,6.837 0.813,6.195 -1.03,6.401 -2.053,7.678 c -0.246,0.317 -0.43,0.721 -0.443,1.17 -0.004,0.224 0.045,0.451 0.132,0.657 0.067,0.179 0.287,0.454 0.48,0.541 0.785,0.407 1.562,0.313 2.278,0.109 C 1.112,9.938 1.741,9.488 2.216,8.933 2.701,8.378 3,7.706 3.211,7.032 L 3.354,6.521 3.436,5.993 C 3.448,5.905 3.464,5.817 3.474,5.729 L 3.477,5.461 C 3.474,5.283 3.492,5.105 3.471,4.929 3.42,4.217 3.199,3.531 2.881,2.909 2.224,1.667 1.172,0.696 0,0"
         style="fill:#3a3a3a;fill-opacity:1;fill-rule:nonzero;stroke:none"
         id="path1598" /></g><g
       id="g1600"
       transform="translate(268.10845,196.0216)"><path
         d="M 0,0 C 0,0 -2.654,0.095 -2.315,2.803 -1.977,5.511 1.07,3.48 -0.623,2.126 -2.315,0.772 0,0 0,0"
         style="fill:#3a3a3a;fill-opacity:1;fill-rule:nonzero;stroke:none"
         id="path1602" /></g><g
       id="g1604"
       transform="translate(263.25445,217.611)"><path
         d="M 0,0 C 0,0 -1.508,0.302 -2.235,-1.251 -2.963,-2.806 -0.65,-2.756 -1.102,-1.464 -1.554,-0.172 0,0 0,0"
         style="fill:#3a3a3a;fill-opacity:1;fill-rule:nonzero;stroke:none"
         id="path1606" /></g><g
       id="g1608"
       transform="translate(273.78815,188.8087)"><path
         d="m 0,0 c -1.233,-1.608 -2.753,-3.007 -4.522,-4.059 -1.769,-1.029 -3.891,-1.618 -6.007,-1.348 -1.046,0.124 -2.131,0.47 -3.013,1.214 -0.875,0.736 -1.412,1.975 -1.184,3.166 0.116,0.586 0.395,1.164 0.879,1.572 0.482,0.405 1.169,0.581 1.746,0.443 0.146,-0.023 0.288,-0.071 0.427,-0.121 0.17,-0.058 0.268,-0.135 0.39,-0.214 0.227,-0.162 0.44,-0.351 0.607,-0.587 0.164,-0.235 0.275,-0.524 0.272,-0.814 0.002,-0.29 -0.111,-0.55 -0.252,-0.767 l -0.091,0.045 c 0.402,1.003 -0.68,1.72 -1.444,1.75 -0.848,0.061 -1.451,-0.642 -1.531,-1.466 -0.091,-0.816 0.227,-1.672 0.86,-2.266 0.622,-0.615 1.518,-0.992 2.457,-1.152 1.892,-0.339 3.891,0.087 5.642,0.992 1.764,0.892 3.36,2.168 4.683,3.674 z"
         style="fill:#3a3a3a;fill-opacity:1;fill-rule:nonzero;stroke:none"
         id="path1610" /></g><g
       id="g1612"
       transform="translate(268.87455,183.5558)"><path
         d="m 0,0 c -0.627,-0.675 -1.338,-1.264 -2.09,-1.809 -0.763,-0.527 -1.582,-0.993 -2.474,-1.332 -0.881,-0.335 -1.874,-0.622 -2.877,-0.432 -0.992,0.178 -1.916,0.734 -2.442,1.54 l 0.065,0.078 c 0.445,-0.169 0.853,-0.325 1.267,-0.431 0.415,-0.096 0.822,-0.161 1.231,-0.178 0.809,-0.019 1.66,-0.032 2.508,0.196 0.843,0.217 1.668,0.567 2.456,0.992 0.797,0.412 1.561,0.905 2.286,1.45 z"
         style="fill:#3a3a3a;fill-opacity:1;fill-rule:nonzero;stroke:none"
         id="path1614" /></g><g
       id="g1616"
       transform="translate(271.20905,185.9621)"><path
         d="M 0,0 C 0,0 0.677,1.354 0.677,2.031 L 4.4,4.4 2.37,0.677 c 0,0 -1.693,0 -2.37,-0.677"
         style="fill:#3a3a3a;fill-opacity:1;fill-rule:nonzero;stroke:none"
         id="path1618" /></g><g
       id="g1620"
       transform="translate(263.93175,174.9611)"><path
         d="m 0,0 c -1.692,0.677 -4.062,-0.338 -4.062,-0.338 0,0 1.016,2.369 0.338,4.062 0,0 3.047,-0.339 5.078,1.354 C -0.338,3.047 0,0 0,0"
         style="fill:#3a3a3a;fill-opacity:1;fill-rule:nonzero;stroke:none"
         id="path1622" /></g><path
       d="m 261.39245,220.9468 h -0.479 v 103.293 h 0.479 z"
       style="fill:#3a3a3a;fill-opacity:1;fill-rule:nonzero;stroke:none"
       id="path1624" /><path
       d="m 411.93145,176.8718 h -106.171 v 0.479 h 106.171 z"
       style="fill:#3a3a3a;fill-opacity:1;fill-rule:nonzero;stroke:none"
       id="path1626" /><path
       d="m 455.21045,220.9468 h -0.48 v 103.293 h 0.48 z"
       style="fill:#3a3a3a;fill-opacity:1;fill-rule:nonzero;stroke:none"
       id="path1628" /><path
       d="m 411.93145,370.6888 h -104.253 v 0.48 h 104.253 z"
       style="fill:#3a3a3a;fill-opacity:1;fill-rule:nonzero;stroke:none"
       id="path1630" /><g
       id="g1632"
       transform="translate(353.24915,371.1691)"><path
         d="m 0,0 c 0,0 4.386,-0.822 6.03,-2.467 0,0 3.564,2.193 7.401,2.467"
         style="fill:#3a3a3a;fill-opacity:1;fill-rule:nonzero;stroke:none"
         id="path1634" /></g><g
       id="g1636"
       transform="translate(353.24915,371.1691)"><path
         d="m 0,0 c 0,0 4.386,0.822 6.03,2.467 0,0 3.564,-2.193 7.401,-2.467"
         style="fill:#3a3a3a;fill-opacity:1;fill-rule:nonzero;stroke:none"
         id="path1638" /></g><g
       id="g1640"
       transform="translate(353.24915,176.8947)"><path
         d="m 0,0 c 0,0 4.386,-0.822 6.03,-2.467 0,0 3.564,2.193 7.401,2.467"
         style="fill:#3a3a3a;fill-opacity:1;fill-rule:nonzero;stroke:none"
         id="path1642" /></g><g
       id="g1644"
       transform="translate(353.24915,176.8947)"><path
         d="m 0,0 c 0,0 4.386,0.822 6.03,2.467 0,0 3.564,-2.193 7.401,-2.467"
         style="fill:#3a3a3a;fill-opacity:1;fill-rule:nonzero;stroke:none"
         id="path1646" /></g><g
       id="g1648"
       transform="translate(260.90875,267.3161)"><path
         d="m 0,0 c 0,0 0.822,4.386 2.467,6.031 0,0 -2.193,3.563 -2.467,7.401"
         style="fill:#3a3a3a;fill-opacity:1;fill-rule:nonzero;stroke:none"
         id="path1650" /></g><g
       id="g1652"
       transform="translate(260.90875,267.3161)"><path
         d="m 0,0 c 0,0 -0.822,4.386 -2.467,6.031 0,0 2.193,3.563 2.467,7.401"
         style="fill:#3a3a3a;fill-opacity:1;fill-rule:nonzero;stroke:none"
         id="path1654" /></g><g
       id="g1656"
       transform="translate(455.18315,267.3161)"><path
         d="m 0,0 c 0,0 0.822,4.386 2.467,6.031 0,0 -2.193,3.563 -2.467,7.401"
         style="fill:#3a3a3a;fill-opacity:1;fill-rule:nonzero;stroke:none"
         id="path1658" /></g><g
       id="g1660"
       transform="translate(455.18315,267.3161)"><path
         d="m 0,0 c 0,0 -0.822,4.386 -2.467,6.031 0,0 2.193,3.563 2.467,7.401"
         style="fill:#3a3a3a;fill-opacity:1;fill-rule:nonzero;stroke:none"
         id="path1662" /></g><g
       id="g1672"
       transform="translate(54.825317,221.97873)" /><g
       id="g1676"
       transform="translate(61.749117,223.58813)" /><g
       id="g1680"
       transform="translate(50.963017,225.62723)" /><g
       id="g1686"
       transform="translate(54.667117,221.76193)" /><g
       id="g1690"
       transform="translate(53.016717,214.62323)" /><g
       id="g1694"
       transform="translate(50.815017,225.39963)" /><g
       id="g1698"
       transform="translate(48.788717,232.22583)" /><g
       id="g1704"
       transform="translate(227.35412,221.84793)" /><g
       id="g1708"
       transform="translate(220.21542,223.49823)" /><g
       id="g1712"
       transform="translate(230.99232,225.69943)" /><g
       id="g1718"
       transform="translate(227.57142,221.68973)" /><g
       id="g1722"
       transform="translate(229.18082,214.76583)" /><g
       id="g1726"
       transform="translate(231.21932,225.55203)" /><g
       id="g1730"
       transform="translate(233.31852,232.22583)" /><g
       id="g1736"
       transform="translate(227.28182,49.519734)" /><g
       id="g1740"
       transform="translate(220.35802,47.910434)" /><g
       id="g1744"
       transform="translate(231.14412,45.872334)" /><g
       id="g1750"
       transform="translate(227.44002,49.736534)" /><g
       id="g1754"
       transform="translate(229.09042,56.876234)" /><g
       id="g1758"
       transform="translate(231.29212,46.098834)" /><g
       id="g1762"
       transform="translate(233.31852,39.272734)" /><g
       id="g1768"
       transform="translate(54.753017,49.651634)" /><g
       id="g1772"
       transform="translate(61.891717,48.000234)" /><g
       id="g1776"
       transform="translate(51.114817,45.799034)" /><g
       id="g1782"
       transform="translate(54.535717,49.808834)" /><g
       id="g1786"
       transform="translate(52.926417,56.733634)" /><g
       id="g1790"
       transform="translate(50.887817,45.946534)" /><g
       id="g1794"
       transform="translate(48.788717,39.272734)" /></g></svg>
