<?xml version="1.0" encoding="UTF-8" standalone="no"?>
<svg
   xmlns:dc="http://purl.org/dc/elements/1.1/"
   xmlns:cc="http://creativecommons.org/ns#"
   xmlns:rdf="http://www.w3.org/1999/02/22-rdf-syntax-ns#"
   xmlns:svg="http://www.w3.org/2000/svg"
   xmlns="http://www.w3.org/2000/svg"
   xmlns:sodipodi="http://sodipodi.sourceforge.net/DTD/sodipodi-0.dtd"
   xmlns:inkscape="http://www.inkscape.org/namespaces/inkscape"
   version="1.1"
   id="svg10"
   xml:space="preserve"
   width="1000"
   height="666.66669"
   viewBox="0 0 1000 666.66669"
   sodipodi:docname="vintage_frame_1.svg"
   inkscape:version="1.0 (4035a4fb49, 2020-05-01)"><metadata
     id="metadata16"><rdf:RDF><cc:Work
         rdf:about=""><dc:format>image/svg+xml</dc:format><dc:type
           rdf:resource="http://purl.org/dc/dcmitype/StillImage" /><dc:title></dc:title></cc:Work></rdf:RDF></metadata><defs
     id="defs14"><clipPath
       clipPathUnits="userSpaceOnUse"
       id="clipPath26"><path
         d="M 0,500 H 750 V 0 H 0 Z"
         id="path24" /></clipPath><clipPath
       clipPathUnits="userSpaceOnUse"
       id="clipPath34"><path
         d="M -242.434,654.71 H 876.024 V -323.241 H -242.434 Z"
         id="path32" /></clipPath><clipPath
       clipPathUnits="userSpaceOnUse"
       id="clipPath38"><path
         d="M 750,0 H 0 v 500 h 750 z"
         id="path36" /></clipPath><clipPath
       clipPathUnits="userSpaceOnUse"
       id="clipPath42"><path
         d="M 554.861,37.5212 H 717.603 V -97.015 H 554.861 Z"
         id="path40" /></clipPath><clipPath
       clipPathUnits="userSpaceOnUse"
       id="clipPath46"><path
         d="M 554.861,37.5212 H 717.603 V -97.015 H 554.861 Z"
         id="path44" /></clipPath><clipPath
       clipPathUnits="userSpaceOnUse"
       id="clipPath50"><path
         d="M 584.911,75.2918 H 686.525 V -84.0397 H 584.911 Z"
         id="path48" /></clipPath><clipPath
       clipPathUnits="userSpaceOnUse"
       id="clipPath54"><path
         d="M 584.911,75.2918 H 686.525 V -84.0397 H 584.911 Z"
         id="path52" /></clipPath><clipPath
       clipPathUnits="userSpaceOnUse"
       id="clipPath58"><path
         d="M 625.911,594.355 H 793.477 V 437.458 H 625.911 Z"
         id="path56" /></clipPath><clipPath
       clipPathUnits="userSpaceOnUse"
       id="clipPath62"><path
         d="M 625.911,594.355 H 793.477 V 437.458 H 625.911 Z"
         id="path60" /></clipPath><clipPath
       clipPathUnits="userSpaceOnUse"
       id="clipPath66"><path
         d="M -49.4458,576.72 H 118.12 V 419.824 H -49.4458 Z"
         id="path64" /></clipPath><clipPath
       clipPathUnits="userSpaceOnUse"
       id="clipPath70"><path
         d="M -49.4458,576.72 H 118.12 V 419.824 H -49.4458 Z"
         id="path68" /></clipPath><clipPath
       clipPathUnits="userSpaceOnUse"
       id="clipPath74"><path
         d="m 708.799,451.118 h 86.832 V 277.624 h -86.832 z"
         id="path72" /></clipPath><clipPath
       clipPathUnits="userSpaceOnUse"
       id="clipPath78"><path
         d="m 708.799,451.118 h 86.832 V 277.624 h -86.832 z"
         id="path76" /></clipPath><clipPath
       clipPathUnits="userSpaceOnUse"
       id="clipPath82"><path
         d="M 396.633,522.551 H 714.441 V 463.818 H 396.633 Z"
         id="path80" /></clipPath><clipPath
       clipPathUnits="userSpaceOnUse"
       id="clipPath86"><path
         d="M 396.633,522.551 H 714.441 V 463.818 H 396.633 Z"
         id="path84" /></clipPath><clipPath
       clipPathUnits="userSpaceOnUse"
       id="clipPath90"><path
         d="M 30.6333,528.551 H 348.441 V 469.818 H 30.6333 Z"
         id="path88" /></clipPath><clipPath
       clipPathUnits="userSpaceOnUse"
       id="clipPath94"><path
         d="M 30.6333,528.551 H 348.441 V 469.818 H 30.6333 Z"
         id="path92" /></clipPath><clipPath
       clipPathUnits="userSpaceOnUse"
       id="clipPath98"><path
         d="M 322.451,654.71 H 470.92 V 462.2 H 322.451 Z"
         id="path96" /></clipPath><clipPath
       clipPathUnits="userSpaceOnUse"
       id="clipPath102"><path
         d="M 322.451,654.71 H 470.92 V 462.2 H 322.451 Z"
         id="path100" /></clipPath><clipPath
       clipPathUnits="userSpaceOnUse"
       id="clipPath106"><path
         d="M -39.0844,87.5493 H 48.8049 V -4.91441 h -87.8893 z"
         id="path104" /></clipPath><clipPath
       clipPathUnits="userSpaceOnUse"
       id="clipPath110"><path
         d="M -39.0844,87.5493 H 48.8049 V -4.91441 h -87.8893 z"
         id="path108" /></clipPath><clipPath
       clipPathUnits="userSpaceOnUse"
       id="clipPath114"><path
         d="m 698.526,329.525 h 87.889 v -92.464 h -87.889 z"
         id="path112" /></clipPath><clipPath
       clipPathUnits="userSpaceOnUse"
       id="clipPath118"><path
         d="m 698.526,329.525 h 87.889 v -92.464 h -87.889 z"
         id="path116" /></clipPath><clipPath
       clipPathUnits="userSpaceOnUse"
       id="clipPath122"><path
         d="m -187.289,422.17 h 346.06 V 282.678 h -346.06 z"
         id="path120" /></clipPath><clipPath
       clipPathUnits="userSpaceOnUse"
       id="clipPath126"><path
         d="m -187.289,422.17 h 346.06 V 282.678 h -346.06 z"
         id="path124" /></clipPath><clipPath
       clipPathUnits="userSpaceOnUse"
       id="clipPath130"><path
         d="M -242.434,182.886 H 115.12 V 70.0401 h -357.554 z"
         id="path128" /></clipPath><clipPath
       clipPathUnits="userSpaceOnUse"
       id="clipPath134"><path
         d="M -242.434,182.886 H 115.12 V 70.0401 h -357.554 z"
         id="path132" /></clipPath><clipPath
       clipPathUnits="userSpaceOnUse"
       id="clipPath138"><path
         d="M 625.406,297.962 H 756.774 V 141.851 H 625.406 Z"
         id="path136" /></clipPath><clipPath
       clipPathUnits="userSpaceOnUse"
       id="clipPath142"><path
         d="M 625.406,297.962 H 756.774 V 141.851 H 625.406 Z"
         id="path140" /></clipPath><clipPath
       clipPathUnits="userSpaceOnUse"
       id="clipPath146"><path
         d="M 230.596,38.4901 H 429.644 V -30.7946 H 230.596 Z"
         id="path144" /></clipPath><clipPath
       clipPathUnits="userSpaceOnUse"
       id="clipPath150"><path
         d="M 230.596,38.4901 H 429.644 V -30.7946 H 230.596 Z"
         id="path148" /></clipPath><clipPath
       clipPathUnits="userSpaceOnUse"
       id="clipPath154"><path
         d="M 676.976,191.69 H 876.024 V 122.405 H 676.976 Z"
         id="path152" /></clipPath><clipPath
       clipPathUnits="userSpaceOnUse"
       id="clipPath158"><path
         d="M 676.976,191.69 H 876.024 V 122.405 H 676.976 Z"
         id="path156" /></clipPath><clipPath
       clipPathUnits="userSpaceOnUse"
       id="clipPath162"><path
         d="m 630.507,130.626 h 170.8 v -390.128 h -170.8 z"
         id="path160" /></clipPath><clipPath
       clipPathUnits="userSpaceOnUse"
       id="clipPath166"><path
         d="m 630.507,130.626 h 170.8 v -390.128 h -170.8 z"
         id="path164" /></clipPath><clipPath
       clipPathUnits="userSpaceOnUse"
       id="clipPath170"><path
         d="M 672.598,147.985 H 843.397 V -242.144 H 672.598 Z"
         id="path168" /></clipPath><clipPath
       clipPathUnits="userSpaceOnUse"
       id="clipPath174"><path
         d="M 672.598,147.985 H 843.397 V -242.144 H 672.598 Z"
         id="path172" /></clipPath><clipPath
       clipPathUnits="userSpaceOnUse"
       id="clipPath178"><path
         d="M 436.859,66.8876 H 607.658 V -323.241 H 436.859 Z"
         id="path176" /></clipPath><clipPath
       clipPathUnits="userSpaceOnUse"
       id="clipPath182"><path
         d="M 436.859,66.8876 H 607.658 V -323.241 H 436.859 Z"
         id="path180" /></clipPath><clipPath
       clipPathUnits="userSpaceOnUse"
       id="clipPath186"><path
         d="M 117.439,125.622 H 288.238 V -264.507 H 117.439 Z"
         id="path184" /></clipPath><clipPath
       clipPathUnits="userSpaceOnUse"
       id="clipPath190"><path
         d="M 117.439,125.622 H 288.238 V -264.507 H 117.439 Z"
         id="path188" /></clipPath><clipPath
       clipPathUnits="userSpaceOnUse"
       id="clipPath194"><path
         d="M -56.5753,288.89 H 76.7312 V 235.682 H -56.5753 Z"
         id="path192" /></clipPath><clipPath
       clipPathUnits="userSpaceOnUse"
       id="clipPath198"><path
         d="M -56.5753,288.89 H 76.7312 V 235.682 H -56.5753 Z"
         id="path196" /></clipPath><clipPath
       clipPathUnits="userSpaceOnUse"
       id="clipPath202"><path
         d="M 0,500 H 750 V 0 H 0 Z"
         id="path200" /></clipPath><clipPath
       clipPathUnits="userSpaceOnUse"
       id="clipPath206"><path
         d="M 750,0 H 0 v 500 h 750 z"
         id="path204" /></clipPath><radialGradient
       fx="0"
       fy="0"
       cx="0"
       cy="0"
       r="1"
       gradientUnits="userSpaceOnUse"
       gradientTransform="matrix(375,0,0,-250,375,250)"
       spreadMethod="pad"
       id="radialGradient212"><stop
         style="stop-opacity:1;stop-color:#f6f4e9"
         offset="0"
         id="stop208" /><stop
         style="stop-opacity:1;stop-color:#e6d8be"
         offset="1"
         id="stop210" /></radialGradient><clipPath
       clipPathUnits="userSpaceOnUse"
       id="clipPath1398"><path
         d="M 0,500 H 750 V 0 H 0 Z"
         id="path1396" /></clipPath></defs><sodipodi:namedview
     inkscape:document-rotation="0"
     pagecolor="#ffffff"
     bordercolor="#666666"
     borderopacity="1"
     objecttolerance="10"
     gridtolerance="10"
     guidetolerance="10"
     inkscape:pageopacity="0"
     inkscape:pageshadow="2"
     inkscape:window-width="1366"
     inkscape:window-height="705"
     id="namedview12"
     showgrid="false"
     inkscape:zoom="0.40349999"
     inkscape:cx="432.88846"
     inkscape:cy="511.77202"
     inkscape:window-x="-8"
     inkscape:window-y="-8"
     inkscape:window-maximized="1"
     inkscape:current-layer="g18" /><g
     id="g18"
     inkscape:groupmode="layer"
     inkscape:label="3152246"
     transform="matrix(1.3333333,0,0,-1.3333333,0,666.66667)"
     style="display:inline"><g
       id="g1672"
       transform="translate(54.825317,221.97873)" /><g
       id="g1676"
       transform="translate(61.749117,223.58813)" /><g
       id="g1680"
       transform="translate(50.963017,225.62723)" /><g
       id="g1686"
       transform="translate(54.667117,221.76193)" /><g
       id="g1690"
       transform="translate(53.016717,214.62323)" /><g
       id="g1694"
       transform="translate(50.815017,225.39963)" /><g
       id="g1698"
       transform="translate(48.788717,232.22583)" /><g
       id="g1704"
       transform="translate(227.35412,221.84793)" /><g
       id="g1708"
       transform="translate(220.21542,223.49823)" /><g
       id="g1712"
       transform="translate(230.99232,225.69943)" /><g
       id="g1718"
       transform="translate(227.57142,221.68973)" /><g
       id="g1722"
       transform="translate(229.18082,214.76583)" /><g
       id="g1726"
       transform="translate(231.21932,225.55203)" /><g
       id="g1730"
       transform="translate(233.31852,232.22583)" /><g
       id="g1736"
       transform="translate(227.28182,49.519734)" /><g
       id="g1740"
       transform="translate(220.35802,47.910434)" /><g
       id="g1744"
       transform="translate(231.14412,45.872334)" /><g
       id="g1750"
       transform="translate(227.44002,49.736534)" /><g
       id="g1754"
       transform="translate(229.09042,56.876234)" /><g
       id="g1758"
       transform="translate(231.29212,46.098834)" /><g
       id="g1762"
       transform="translate(233.31852,39.272734)" /><g
       id="g1768"
       transform="translate(54.753017,49.651634)" /><g
       id="g1772"
       transform="translate(61.891717,48.000234)" /><g
       id="g1776"
       transform="translate(51.114817,45.799034)" /><g
       id="g1782"
       transform="translate(54.535717,49.808834)" /><g
       id="g1786"
       transform="translate(52.926417,56.733634)" /><g
       id="g1790"
       transform="translate(50.887817,45.946534)" /><g
       id="g1794"
       transform="translate(48.788717,39.272734)" /><path
       d="m 257.50396,208.48692 h -0.48 v 112.248 h 0.48 z"
       style="fill:#3a3a3a;fill-opacity:1;fill-rule:nonzero;stroke:none"
       id="path1804" /><path
       d="m 255.34096,208.48692 h -0.48 v 112.248 h 0.48 z"
       style="fill:#3a3a3a;fill-opacity:1;fill-rule:nonzero;stroke:none"
       id="path1806" /><path
       d="m 409.32096,166.94092 h -110.648 v 0.479 h 110.648 z"
       style="fill:#3a3a3a;fill-opacity:1;fill-rule:nonzero;stroke:none"
       id="path1808" /><path
       d="m 409.79996,164.54192 h -110.648 v 0.479 h 110.648 z"
       style="fill:#3a3a3a;fill-opacity:1;fill-rule:nonzero;stroke:none"
       id="path1810" /><path
       d="m 451.32096,208.48692 h -0.48 v 110.649 h 0.48 z"
       style="fill:#3a3a3a;fill-opacity:1;fill-rule:nonzero;stroke:none"
       id="path1812" /><path
       d="m 453.71896,208.48692 h -0.48 v 110.649 h 0.48 z"
       style="fill:#3a3a3a;fill-opacity:1;fill-rule:nonzero;stroke:none"
       id="path1814" /><path
       d="m 409.32096,360.75792 h -109.849 v 0.479 h 109.849 z"
       style="fill:#3a3a3a;fill-opacity:1;fill-rule:nonzero;stroke:none"
       id="path1816" /><path
       d="m 409.32096,363.42692 h -109.849 v 0.479 h 109.849 z"
       style="fill:#3a3a3a;fill-opacity:1;fill-rule:nonzero;stroke:none"
       id="path1818" /><g
       id="g1820"
       transform="translate(456.34636,326.98642)"><path
         d="m 0,0 c 0,-0.795 -0.644,-1.439 -1.438,-1.44 -0.795,0 -1.44,0.643 -1.441,1.438 0,0.795 0.644,1.439 1.439,1.44 C -0.646,1.438 -0.001,0.795 0,0"
         style="fill:#3a3a3a;fill-opacity:1;fill-rule:nonzero;stroke:none"
         id="path1822" /></g><g
       id="g1824"
       transform="translate(453.69796,338.97662)"><path
         d="m 0,0 c 0.001,-0.795 -0.644,-1.439 -1.437,-1.44 -0.795,0 -1.441,0.643 -1.441,1.438 -10e-4,0.795 0.643,1.439 1.438,1.44 C -0.646,1.438 -0.001,0.795 0,0"
         style="fill:#3a3a3a;fill-opacity:1;fill-rule:nonzero;stroke:none"
         id="path1826" /></g><g
       id="g1828"
       transform="translate(451.29946,338.97472)"><path
         d="m 0,0 h -0.479 l -0.022,25.903 h 0.48 z"
         style="fill:#3a3a3a;fill-opacity:1;fill-rule:nonzero;stroke:none"
         id="path1830" /></g><g
       id="g1832"
       transform="translate(442.90106,343.28522)"><path
         d="m 0,0 c 0.001,-0.795 0.646,-1.438 1.44,-1.437 0.795,0 1.439,0.645 1.439,1.439 C 2.878,0.797 2.233,1.44 1.438,1.44 0.644,1.439 0,0.795 0,0"
         style="fill:#3a3a3a;fill-opacity:1;fill-rule:nonzero;stroke:none"
         id="path1834" /></g><g
       id="g1836"
       transform="translate(445.29946,343.28722)"><path
         d="M 0,0 H 0.48 L 0.471,11.992 H -0.01 Z"
         style="fill:#3a3a3a;fill-opacity:1;fill-rule:nonzero;stroke:none"
         id="path1838" /></g><g
       id="g1840"
       transform="translate(448.40596,358.39952)"><path
         d="M 0,0 6.235,0.006 6.23,6.241 -0.005,6.236 Z m 5.726,-36.291 c -2.253,-0.002 -3.699,1.07 -4.572,2.11 -1.037,1.238 -1.609,2.879 -1.61,4.624 l -0.023,29.078 -29.078,-0.024 c -1.745,-0.002 -3.387,0.567 -4.626,1.603 -1.358,1.135 -2.772,3.246 -1.792,6.849 0.829,3.051 3.391,3.832 5.334,3.572 1.873,-0.249 3.77,-1.575 3.772,-3.627 0.001,-1.816 -0.836,-3.132 -2.239,-3.523 -1.308,-0.363 -2.741,0.243 -3.482,1.476 l 0.411,0.247 c 0.63,-1.048 1.84,-1.567 2.942,-1.26 1.183,0.328 1.889,1.472 1.888,3.06 -0.002,1.776 -1.689,2.93 -3.355,3.152 -1.751,0.236 -4.061,-0.471 -4.808,-3.223 -0.733,-2.696 -0.182,-4.835 1.637,-6.355 1.151,-0.963 2.686,-1.492 4.317,-1.491 L -0.48,0 -0.485,6.716 6.71,6.722 6.716,-0.474 0,-0.479 0.023,-29.557 c 0.002,-1.631 0.534,-3.165 1.498,-4.315 1.525,-1.816 3.664,-2.364 6.359,-1.627 2.751,0.753 3.451,3.063 3.215,4.813 -0.225,1.666 -1.381,3.352 -3.158,3.35 -1.587,-0.001 -2.73,-0.709 -3.057,-1.893 -0.304,-1.102 0.217,-2.311 1.266,-2.939 l -0.248,-0.411 c -1.233,0.738 -1.841,2.169 -1.48,3.478 0.388,1.405 1.703,2.244 3.519,2.246 2.052,0.001 3.381,-1.894 3.633,-3.766 0.262,-1.942 -0.514,-4.506 -3.563,-5.34 -0.839,-0.229 -1.598,-0.33 -2.281,-0.33"
         style="fill:#3a3a3a;fill-opacity:1;fill-rule:nonzero;stroke:none"
         id="path1842" /></g><g
       id="g1844"
       transform="translate(416.97916,366.28912)"><path
         d="m 0,0 c -0.794,0 -1.438,-0.646 -1.437,-1.44 0,-0.794 0.645,-1.439 1.44,-1.438 0.795,0.001 1.438,0.646 1.437,1.441 C 1.439,-0.643 0.795,0.001 0,0"
         style="fill:#3a3a3a;fill-opacity:1;fill-rule:nonzero;stroke:none"
         id="path1846" /></g><g
       id="g1848"
       transform="translate(428.97426,363.66122)"><path
         d="m 0,0 c -0.795,-0.001 -1.438,-0.646 -1.438,-1.44 10e-4,-0.795 0.645,-1.439 1.44,-1.439 0.795,10e-4 1.438,0.646 1.437,1.441 C 1.439,-0.644 0.794,0 0,0"
         style="fill:#3a3a3a;fill-opacity:1;fill-rule:nonzero;stroke:none"
         id="path1850" /></g><g
       id="g1852"
       transform="translate(428.97626,361.26282)"><path
         d="m 0,0 v -0.48 l 25.903,0.021 v 0.48 z"
         style="fill:#3a3a3a;fill-opacity:1;fill-rule:nonzero;stroke:none"
         id="path1854" /></g><g
       id="g1856"
       transform="translate(433.29946,352.87122)"><path
         d="m 0,0 c -0.794,-0.001 -1.439,0.644 -1.439,1.438 -10e-4,0.794 0.642,1.44 1.437,1.44 C 0.793,2.879 1.437,2.235 1.438,1.44 1.438,0.646 0.795,0.001 0,0"
         style="fill:#3a3a3a;fill-opacity:1;fill-rule:nonzero;stroke:none"
         id="path1858" /></g><g
       id="g1860"
       transform="translate(433.77796,355.27062)"><path
         d="m 0,0 -0.001,0.479 11.992,0.01 0.001,-0.48 z"
         style="fill:#3a3a3a;fill-opacity:1;fill-rule:nonzero;stroke:none"
         id="path1862" /></g><g
       id="g1864"
       transform="translate(251.99816,326.98642)"><path
         d="m 0,0 c -0.001,-0.795 0.643,-1.439 1.438,-1.44 0.794,0 1.439,0.643 1.44,1.438 0,0.795 -0.643,1.439 -1.438,1.44 C 0.646,1.438 0,0.795 0,0"
         style="fill:#3a3a3a;fill-opacity:1;fill-rule:nonzero;stroke:none"
         id="path1866" /></g><g
       id="g1868"
       transform="translate(254.64616,338.97662)"><path
         d="m 0,0 c 0,-0.795 0.643,-1.439 1.438,-1.44 0.794,0 1.439,0.643 1.44,1.438 C 2.879,0.793 2.235,1.437 1.44,1.438 0.646,1.438 0,0.795 0,0"
         style="fill:#3a3a3a;fill-opacity:1;fill-rule:nonzero;stroke:none"
         id="path1870" /></g><g
       id="g1872"
       transform="translate(257.04456,338.97472)"><path
         d="M 0,0 H 0.479 L 0.5,25.903 H 0.021 Z"
         style="fill:#3a3a3a;fill-opacity:1;fill-rule:nonzero;stroke:none"
         id="path1874" /></g><g
       id="g1876"
       transform="translate(265.44256,343.28522)"><path
         d="m 0,0 c 0,-0.795 -0.646,-1.438 -1.44,-1.437 -0.795,0 -1.439,0.645 -1.438,1.439 0.001,0.795 0.646,1.438 1.44,1.438 C -0.643,1.439 0,0.795 0,0"
         style="fill:#3a3a3a;fill-opacity:1;fill-rule:nonzero;stroke:none"
         id="path1878" /></g><g
       id="g1880"
       transform="translate(263.04406,343.28722)"><path
         d="M 0,0 H -0.479 L -0.47,11.992 H 0.01 Z"
         style="fill:#3a3a3a;fill-opacity:1;fill-rule:nonzero;stroke:none"
         id="path1882" /></g><g
       id="g1884"
       transform="translate(259.94356,364.63582)"><path
         d="m 0,0 -6.236,0.005 -0.005,-6.235 6.236,-0.006 z m -8.012,-42.197 c -3.05,0.834 -3.825,3.398 -3.564,5.34 0.252,1.872 1.582,3.766 3.634,3.765 1.816,-0.002 3.131,-0.841 3.519,-2.245 0.361,-1.309 -0.248,-2.74 -1.481,-3.478 l -0.247,0.411 c 1.049,0.628 1.569,1.837 1.265,2.939 -0.326,1.184 -1.469,1.892 -3.056,1.893 -1.777,0.002 -2.934,-1.684 -3.159,-3.35 -0.235,-1.75 0.465,-4.06 3.215,-4.813 2.697,-0.738 4.835,-0.19 6.359,1.627 0.965,1.15 1.497,2.683 1.498,4.315 L -0.005,-6.716 -6.721,-6.71 -6.715,0.485 0.48,0.479 0.475,-6.236 29.552,-6.26 c 1.633,-0.001 3.166,0.529 4.318,1.491 1.819,1.521 2.37,3.66 1.637,6.356 C 34.759,4.339 32.45,5.046 30.698,4.81 29.032,4.588 27.345,3.434 27.344,1.657 c -0.002,-1.588 0.704,-2.731 1.887,-3.059 1.102,-0.307 2.312,0.212 2.942,1.259 l 0.411,-0.247 c -0.74,-1.232 -2.173,-1.839 -3.48,-1.475 -1.404,0.39 -2.242,1.707 -2.24,3.522 0.002,2.053 1.898,3.379 3.771,3.628 1.944,0.26 4.506,-0.521 5.335,-3.572 0.98,-3.604 -0.434,-5.714 -1.793,-6.85 -1.238,-1.035 -2.881,-1.604 -4.626,-1.602 L 0.474,-6.716 0.451,-35.793 c -0.002,-1.745 -0.574,-3.387 -1.611,-4.624 -0.873,-1.04 -2.319,-2.112 -4.571,-2.11 -0.684,0 -1.442,0.1 -2.281,0.33"
         style="fill:#3a3a3a;fill-opacity:1;fill-rule:nonzero;stroke:none"
         id="path1886" /></g><g
       id="g1888"
       transform="translate(291.36446,366.28912)"><path
         d="M 0,0 C 0.795,0 1.438,-0.646 1.438,-1.44 1.437,-2.234 0.792,-2.879 -0.002,-2.878 -0.797,-2.877 -1.441,-2.232 -1.44,-1.437 -1.439,-0.643 -0.794,0.001 0,0"
         style="fill:#3a3a3a;fill-opacity:1;fill-rule:nonzero;stroke:none"
         id="path1890" /></g><g
       id="g1892"
       transform="translate(279.37026,363.66122)"><path
         d="M 0,0 C 0.794,-0.001 1.438,-0.646 1.438,-1.44 1.437,-2.235 0.792,-2.879 -0.002,-2.879 -0.797,-2.878 -1.441,-2.233 -1.44,-1.438 -1.44,-0.644 -0.795,0 0,0"
         style="fill:#3a3a3a;fill-opacity:1;fill-rule:nonzero;stroke:none"
         id="path1894" /></g><g
       id="g1896"
       transform="translate(279.36836,361.26282)"><path
         d="m 0,0 v -0.48 l -25.904,0.021 0.001,0.48 z"
         style="fill:#3a3a3a;fill-opacity:1;fill-rule:nonzero;stroke:none"
         id="path1898" /></g><g
       id="g1900"
       transform="translate(275.04406,352.87122)"><path
         d="M 0,0 C 0.795,-0.001 1.439,0.644 1.44,1.438 1.441,2.232 0.797,2.878 0.002,2.878 -0.792,2.879 -1.437,2.235 -1.438,1.44 -1.438,0.646 -0.795,0.001 0,0"
         style="fill:#3a3a3a;fill-opacity:1;fill-rule:nonzero;stroke:none"
         id="path1902" /></g><g
       id="g1904"
       transform="translate(274.56656,355.27062)"><path
         d="m 0,0 v 0.479 l -11.992,0.01 v -0.48 z"
         style="fill:#3a3a3a;fill-opacity:1;fill-rule:nonzero;stroke:none"
         id="path1906" /></g><g
       id="g1908"
       transform="translate(456.34636,201.19052)"><path
         d="m 0,0 c 0,0.795 -0.644,1.439 -1.438,1.44 -0.795,0.001 -1.44,-0.643 -1.441,-1.437 0,-0.795 0.644,-1.44 1.439,-1.44 C -0.646,-1.438 -0.001,-0.795 0,0"
         style="fill:#3a3a3a;fill-opacity:1;fill-rule:nonzero;stroke:none"
         id="path1910" /></g><g
       id="g1912"
       transform="translate(453.69796,189.20032)"><path
         d="M 0,0 C 0.001,0.795 -0.644,1.439 -1.437,1.44 -2.232,1.441 -2.878,0.798 -2.878,0.003 -2.879,-0.792 -2.235,-1.437 -1.44,-1.437 -0.646,-1.438 -0.001,-0.795 0,0"
         style="fill:#3a3a3a;fill-opacity:1;fill-rule:nonzero;stroke:none"
         id="path1914" /></g><g
       id="g1916"
       transform="translate(451.29946,189.20222)"><path
         d="m 0,0 -0.479,0.001 -0.022,-25.903 0.48,-10e-4 z"
         style="fill:#3a3a3a;fill-opacity:1;fill-rule:nonzero;stroke:none"
         id="path1918" /></g><g
       id="g1920"
       transform="translate(442.90106,184.89172)"><path
         d="M 0,0 C 0.001,0.795 0.646,1.439 1.44,1.438 2.235,1.437 2.879,0.793 2.879,-0.002 2.878,-0.797 2.233,-1.44 1.438,-1.439 0.644,-1.439 0,-0.794 0,0"
         style="fill:#3a3a3a;fill-opacity:1;fill-rule:nonzero;stroke:none"
         id="path1922" /></g><g
       id="g1924"
       transform="translate(445.29946,184.88972)"><path
         d="M 0,0 H 0.48 L 0.471,-11.992 H -0.01 Z"
         style="fill:#3a3a3a;fill-opacity:1;fill-rule:nonzero;stroke:none"
         id="path1926" /></g><g
       id="g1928"
       transform="translate(448.40106,163.54112)"><path
         d="M 0,0 6.235,-0.005 6.24,6.231 0.005,6.236 Z m 8.012,42.198 c 3.049,-0.835 3.825,-3.398 3.563,-5.341 -0.252,-1.872 -1.581,-3.766 -3.634,-3.764 -1.815,10e-4 -3.13,0.841 -3.518,2.245 -0.361,1.309 0.247,2.739 1.48,3.478 L 6.15,38.405 C 5.102,37.776 4.581,36.567 4.885,35.466 c 0.327,-1.185 1.469,-1.893 3.056,-1.894 1.778,-0.001 2.934,1.684 3.159,3.35 0.236,1.75 -0.464,4.061 -3.215,4.813 C 5.189,42.473 3.051,41.926 1.526,40.108 0.562,38.958 0.03,37.426 0.028,35.793 L 0.005,6.716 6.721,6.711 6.715,-0.484 -0.48,-0.479 -0.476,6.236 -29.553,6.261 c -1.632,10e-4 -3.166,-0.529 -4.317,-1.492 -1.819,-1.521 -2.37,-3.659 -1.637,-6.356 0.747,-2.751 3.057,-3.459 4.808,-3.223 1.666,0.222 3.353,1.376 3.355,3.154 0.001,1.587 -0.705,2.73 -1.888,3.059 -1.102,0.307 -2.312,-0.212 -2.942,-1.259 l -0.411,0.246 c 0.741,1.233 2.174,1.839 3.481,1.475 1.404,-0.389 2.241,-1.707 2.24,-3.522 -0.002,-2.053 -1.899,-3.378 -3.772,-3.627 -1.943,-0.261 -4.506,0.521 -5.334,3.571 -0.98,3.605 0.434,5.715 1.792,6.851 1.239,1.034 2.881,1.603 4.626,1.602 l 29.077,-0.023 0.024,29.076 c 0.001,1.745 0.573,3.388 1.61,4.624 0.873,1.041 2.319,2.113 4.571,2.111 0.684,-10e-4 1.443,-0.1 2.282,-0.33"
         style="fill:#3a3a3a;fill-opacity:1;fill-rule:nonzero;stroke:none"
         id="path1930" /></g><g
       id="g1932"
       transform="translate(416.97916,161.88782)"><path
         d="m 0,0 c -0.794,0.001 -1.438,0.646 -1.437,1.44 0,0.795 0.645,1.439 1.44,1.438 0.795,0 1.438,-0.645 1.437,-1.44 C 1.439,0.644 0.795,0 0,0"
         style="fill:#3a3a3a;fill-opacity:1;fill-rule:nonzero;stroke:none"
         id="path1934" /></g><g
       id="g1936"
       transform="translate(428.97426,164.51672)"><path
         d="m 0,0 c -0.795,0.001 -1.438,0.646 -1.438,1.44 10e-4,0.795 0.645,1.439 1.44,1.438 C 0.797,2.877 1.44,2.232 1.439,1.437 1.439,0.643 0.794,-0.001 0,0"
         style="fill:#3a3a3a;fill-opacity:1;fill-rule:nonzero;stroke:none"
         id="path1938" /></g><g
       id="g1940"
       transform="translate(428.97626,166.91512)"><path
         d="m 0,0 v 0.479 l 25.903,-0.02 v -0.48 z"
         style="fill:#3a3a3a;fill-opacity:1;fill-rule:nonzero;stroke:none"
         id="path1942" /></g><g
       id="g1944"
       transform="translate(433.29946,175.30572)"><path
         d="m 0,0 c -0.794,0.001 -1.439,-0.643 -1.439,-1.437 -10e-4,-0.795 0.642,-1.44 1.437,-1.441 0.795,0 1.439,0.644 1.44,1.439 C 1.438,-0.646 0.795,0 0,0"
         style="fill:#3a3a3a;fill-opacity:1;fill-rule:nonzero;stroke:none"
         id="path1946" /></g><g
       id="g1948"
       transform="translate(433.77796,172.90732)"><path
         d="m 0,0 -0.001,-0.479 11.992,-0.01 0.001,0.479 z"
         style="fill:#3a3a3a;fill-opacity:1;fill-rule:nonzero;stroke:none"
         id="path1950" /></g><g
       id="g1952"
       transform="translate(251.99816,201.19052)"><path
         d="M 0,0 C -0.001,0.795 0.643,1.439 1.438,1.44 2.232,1.441 2.877,0.797 2.878,0.003 2.878,-0.792 2.235,-1.437 1.44,-1.437 0.646,-1.438 0,-0.795 0,0"
         style="fill:#3a3a3a;fill-opacity:1;fill-rule:nonzero;stroke:none"
         id="path1954" /></g><g
       id="g1956"
       transform="translate(254.64616,189.20032)"><path
         d="M 0,0 C 0,0.795 0.643,1.439 1.438,1.44 2.232,1.441 2.877,0.798 2.878,0.003 2.879,-0.792 2.235,-1.437 1.44,-1.437 0.646,-1.438 0,-0.795 0,0"
         style="fill:#3a3a3a;fill-opacity:1;fill-rule:nonzero;stroke:none"
         id="path1958" /></g><g
       id="g1960"
       transform="translate(257.04456,189.20222)"><path
         d="M 0,0 0.479,0.001 0.5,-25.902 0.021,-25.903 Z"
         style="fill:#3a3a3a;fill-opacity:1;fill-rule:nonzero;stroke:none"
         id="path1962" /></g><g
       id="g1964"
       transform="translate(265.44256,184.89172)"><path
         d="M 0,0 C 0,0.795 -0.646,1.439 -1.44,1.438 -2.235,1.437 -2.879,0.793 -2.878,-0.002 -2.877,-0.797 -2.232,-1.44 -1.438,-1.439 -0.643,-1.439 0,-0.794 0,0"
         style="fill:#3a3a3a;fill-opacity:1;fill-rule:nonzero;stroke:none"
         id="path1966" /></g><g
       id="g1968"
       transform="translate(263.04406,184.88972)"><path
         d="M 0,0 H -0.479 L -0.47,-11.992 H 0.01 Z"
         style="fill:#3a3a3a;fill-opacity:1;fill-rule:nonzero;stroke:none"
         id="path1970" /></g><g
       id="g1972"
       transform="translate(259.93866,169.77742)"><path
         d="m 0,0 -6.236,-0.005 0.005,-6.236 6.236,0.005 z m -5.726,36.292 c 2.252,0.002 3.698,-1.07 4.571,-2.111 1.037,-1.237 1.609,-2.879 1.611,-4.624 L 0.479,0.48 29.556,0.504 c 1.745,0.001 3.388,-0.568 4.626,-1.603 1.359,-1.135 2.773,-3.246 1.793,-6.85 -0.829,-3.05 -3.392,-3.832 -5.335,-3.572 -1.873,0.25 -3.769,1.575 -3.771,3.627 -0.002,1.816 0.836,3.133 2.239,3.523 1.308,0.364 2.741,-0.242 3.481,-1.476 l -0.411,-0.246 c -0.63,1.048 -1.84,1.567 -2.942,1.26 -1.183,-0.329 -1.889,-1.473 -1.887,-3.06 0.001,-1.777 1.688,-2.931 3.354,-3.153 1.752,-0.236 4.061,0.472 4.809,3.223 0.733,2.697 0.182,4.835 -1.637,6.355 -1.152,0.964 -2.686,1.493 -4.318,1.492 L 0.479,0 0.485,-6.715 -6.71,-6.721 -6.716,0.475 0,0.479 -0.024,29.557 c -0.001,1.632 -0.534,3.165 -1.498,4.315 -1.524,1.817 -3.663,2.364 -6.359,1.627 -2.75,-0.752 -3.451,-3.063 -3.215,-4.813 0.225,-1.666 1.382,-3.351 3.159,-3.35 1.586,0.001 2.729,0.709 3.056,1.893 0.304,1.102 -0.216,2.311 -1.265,2.94 l 0.247,0.411 c 1.233,-0.739 1.842,-2.169 1.481,-3.478 -0.388,-1.405 -1.704,-2.245 -3.519,-2.246 -2.052,-0.002 -3.382,1.893 -3.634,3.765 -0.262,1.942 0.514,4.506 3.564,5.341 0.839,0.229 1.597,0.329 2.281,0.33"
         style="fill:#3a3a3a;fill-opacity:1;fill-rule:nonzero;stroke:none"
         id="path1974" /></g><g
       id="g1976"
       transform="translate(291.36446,161.88782)"><path
         d="M 0,0 C 0.795,0.001 1.438,0.646 1.438,1.44 1.437,2.235 0.792,2.879 -0.002,2.878 -0.797,2.878 -1.441,2.233 -1.44,1.438 -1.439,0.644 -0.794,0 0,0"
         style="fill:#3a3a3a;fill-opacity:1;fill-rule:nonzero;stroke:none"
         id="path1978" /></g><g
       id="g1980"
       transform="translate(279.37026,164.51672)"><path
         d="M 0,0 C 0.794,0.001 1.438,0.646 1.438,1.44 1.437,2.235 0.792,2.879 -0.002,2.878 -0.797,2.877 -1.441,2.232 -1.44,1.437 -1.44,0.643 -0.795,-0.001 0,0"
         style="fill:#3a3a3a;fill-opacity:1;fill-rule:nonzero;stroke:none"
         id="path1982" /></g><g
       id="g1984"
       transform="translate(279.36836,166.91512)"><path
         d="m 0,0 v 0.479 l -25.904,-0.02 0.001,-0.48 z"
         style="fill:#3a3a3a;fill-opacity:1;fill-rule:nonzero;stroke:none"
         id="path1986" /></g><g
       id="g1988"
       transform="translate(275.04406,175.30572)"><path
         d="m 0,0 c 0.795,0.001 1.439,-0.643 1.44,-1.437 0.001,-0.795 -0.643,-1.44 -1.438,-1.441 -0.794,0 -1.439,0.644 -1.44,1.439 C -1.438,-0.646 -0.795,0 0,0"
         style="fill:#3a3a3a;fill-opacity:1;fill-rule:nonzero;stroke:none"
         id="path1990" /></g><g
       id="g1992"
       transform="translate(274.56656,172.90732)"><path
         d="m 0,0 v -0.479 l -11.992,-0.01 v 0.479 z"
         style="fill:#3a3a3a;fill-opacity:1;fill-rule:nonzero;stroke:none"
         id="path1994" /></g></g></svg>
